<svg width="44" height="44" viewBox="0 0 44 44" fill="none" xmlns="http://www.w3.org/2000/svg">
<path d="M32.7438 17.5175C31.9427 16.7165 30.9532 16.1039 29.8694 15.7269C29.728 12.0043 28.6442 8.3759 26.6651 5.17162C26.5237 4.84177 24.0734 1.54324 22.8482 0.318072C22.377 -0.106024 21.623 -0.106024 21.1518 0.318072C16.7224 4.79465 14.3192 10.0252 14.1307 15.7269C13.0469 16.1039 12.0573 16.7165 11.2562 17.5175C8.28756 20.2506 8.05195 24.8685 10.785 27.8843C10.9735 28.1199 11.2562 28.2613 11.5861 28.2613H11.6332C11.9159 28.2613 12.2458 28.1671 12.4343 27.9315L15.6386 25.0099C16.2983 26.7063 17.0993 28.3556 18.136 29.8635C19.0785 31.2771 21.4817 31.4185 22.1885 31.4185H22.2356C23.2252 31.4185 24.9216 31.23 25.7226 30.0991C26.8064 28.544 27.7018 26.8005 28.3615 25.0099L31.5657 27.9315C31.7542 28.1671 32.0841 28.2613 32.3668 28.2613H32.4139C32.7438 28.2613 33.0265 28.1199 33.215 27.8843C35.9481 24.8685 35.7125 20.2506 32.7438 17.5175ZM22 18.2244C19.7853 18.1772 17.9947 16.3866 17.9947 14.1719C17.9947 11.9572 19.7853 10.1665 22 10.1665C24.2147 10.1665 26.0054 11.9572 26.0054 14.1719C26.0054 16.3866 24.2147 18.1772 22 18.2244Z" fill="#F6F6F7"/>
<path d="M39.5457 41.6082H42.5143C43.174 41.6082 43.6924 42.1265 43.6924 42.7862C43.6924 43.4459 43.174 43.9643 42.5143 43.9643H2.17805C1.51834 43.9643 1 43.4459 1 42.7862C1 42.1265 1.51834 41.6082 2.17805 41.6082H3.21473C3.78019 39.4406 5.7593 37.9327 7.97403 37.9327L8.86934 38.0269C9.43481 37.3672 10.1888 36.8489 10.9898 36.5661C13.4402 35.6708 16.1261 36.9902 16.9743 39.4406H17.0214C18.5293 39.4406 19.943 40.2416 20.6969 41.6082H25.3149C26.1631 40.383 27.5296 39.5819 28.9904 39.3934C29.8386 37.3672 31.8177 36.0007 34.0324 36.0007C37.0953 35.9535 39.5457 38.4039 39.5928 41.4668C39.5928 41.5139 39.5457 41.561 39.5457 41.6082Z" fill="#29E68B"/>
<path d="M20.8219 33.115H23.178V38.6283H20.8219V33.115ZM24.6859 32.2197H27.042V37.2618H24.6859V32.2197ZM16.9579 32.2197H19.314V36.8377H16.9579V32.2197Z" fill="#29E68B"/>
</svg>
