<svg width="44" height="44" viewBox="0 0 44 44" fill="none" xmlns="http://www.w3.org/2000/svg">
<g clip-path="url(#clip0_1_2121)">
<path d="M15.4 38.8666C15.0379 38.8661 14.6816 38.7763 14.3625 38.6052C14.0434 38.4341 13.7714 38.1869 13.5705 37.8857C13.3697 37.5844 13.2462 37.2383 13.211 36.8779C13.1758 36.5176 13.2299 36.1541 13.3687 35.8196L26.5694 6.48484C26.7366 6.0842 27.0186 5.74204 27.38 5.50151C27.7414 5.26098 28.1659 5.13286 28.6 5.1333C28.9621 5.13387 29.3184 5.22368 29.6375 5.39478C29.9566 5.56588 30.2286 5.813 30.4295 6.11427C30.6303 6.41553 30.7538 6.76166 30.789 7.12202C30.8242 7.48238 30.7701 7.84586 30.6313 8.1803L17.4306 37.5151C17.2634 37.9157 16.9814 38.2579 16.62 38.4984C16.2586 38.739 15.8341 38.8671 15.4 38.8666Z" fill="#29E68B"/>
<path d="M32 30.8001C32 32.0131 32.9871 33.0001 34.2 33.0001C34.4891 33.0012 34.7755 32.9448 35.0425 32.8341C35.3095 32.7235 35.5519 32.5608 35.7554 32.3555L43.8213 24.2896C44.2371 23.8753 44.4667 23.3223 44.4667 22.7335C44.4667 22.1461 44.2379 21.5931 43.8221 21.1781L35.7561 13.1121C35.3418 12.6963 34.7889 12.4668 34.2 12.4668C32.9871 12.4668 32 13.4539 32 14.6668C31.9993 14.9558 32.056 15.242 32.1666 15.509C32.2773 15.776 32.4397 16.0184 32.6446 16.2222L39.1559 22.7335L32.6453 29.244C32.2295 29.6583 32 30.2113 32 30.8001Z" fill="#F6F6F7"/>
<path d="M9.42382 32.3669C9.69097 32.4777 9.97746 32.5343 10.2667 32.5333C11.4796 32.5333 12.4667 31.5463 12.4667 30.3333C12.4667 29.7445 12.2379 29.1916 11.8221 28.778L5.3108 22.2667L11.8213 15.7561C12.2371 15.3418 12.4667 14.7889 12.4667 14.2C12.4667 12.9871 11.4796 12 10.2667 12C9.97763 11.9991 9.69129 12.0556 9.42428 12.1662C9.15726 12.2769 8.9149 12.4395 8.71127 12.6446L0.645333 20.7105C0.229533 21.1249 0 21.6778 0 22.2667C0 22.8555 0.229533 23.4085 0.6446 23.8221L8.71053 31.888C8.91422 32.0933 9.15668 32.2561 9.42382 32.3669Z" fill="#F6F6F7"/>
</g>
<defs>
<clipPath id="clip0_1_2121">
<rect width="44" height="44" fill="white"/>
</clipPath>
</defs>
</svg>
