<svg width="44" height="44" viewBox="0 0 44 44" fill="none" xmlns="http://www.w3.org/2000/svg">
<g clip-path="url(#clip0_1_2094)">
<path d="M17.7102 6.21777C11.3731 6.21777 6.2175 11.3734 6.2175 17.7105C6.2175 24.0475 11.3731 29.2031 17.7102 29.2031C24.0472 29.2031 29.2029 24.0476 29.2029 17.7105C29.2029 11.3733 24.0474 6.21777 17.7102 6.21777ZM24.7144 17.7105C24.7144 13.8483 21.5724 10.7062 17.7102 10.7062V8.09224C23.0136 8.09224 27.3284 12.407 27.3284 17.7105H24.7144Z" fill="#29E68B"/>
<path d="M42.6794 36.3034L34.6616 28.2856L32.3978 30.5494L31.1175 29.2691C33.7975 26.1648 35.4205 22.1236 35.4205 17.7102C35.4205 7.94484 27.4757 0 17.7103 0C7.94484 0 0 7.94484 0 17.7103C0 27.4757 7.94484 35.4204 17.7102 35.4204C22.1235 35.4204 26.1647 33.7975 29.2691 31.1174L30.5494 32.3977L28.2856 34.6615L36.3034 42.6793C37.155 43.5309 38.2872 43.9999 39.4915 43.9999C40.6957 43.9999 41.8279 43.531 42.6795 42.6794C43.531 41.8279 44 40.6957 44 39.4915C44 38.2872 43.531 37.1549 42.6794 36.3034ZM17.7102 31.8169C9.9318 31.8169 3.60353 25.4887 3.60353 17.7103C3.60353 9.9318 9.9318 3.60362 17.7102 3.60362C25.4885 3.60362 31.8168 9.93188 31.8168 17.7103C31.8168 25.4886 25.4887 31.8169 17.7102 31.8169Z" fill="#F6F6F7"/>
</g>
<defs>
<clipPath id="clip0_1_2094">
<rect width="44" height="44" fill="white"/>
</clipPath>
</defs>
</svg>
