<svg width="44" height="44" viewBox="0 0 44 44" fill="none" xmlns="http://www.w3.org/2000/svg">
<g clip-path="url(#clip0_1_2102)">
<path d="M15.8984 0C7.13195 0 0 7.13195 0 15.8984C0 23.5185 5.38914 29.9045 12.5563 31.4437C12.3211 30.3452 12.2027 29.2249 12.2031 28.1016C12.2031 19.3351 19.3351 12.2031 28.1016 12.2031C29.2471 12.2031 30.3652 12.3252 31.4437 12.5563C29.9045 5.38914 23.5185 0 15.8984 0Z" fill="#29E68B"/>
<path d="M31.7857 15.2995C30.6152 14.9617 29.3795 14.7812 28.1016 14.7812C20.7565 14.7812 14.7812 20.7565 14.7812 28.1016C14.7812 29.3795 14.9617 30.6152 15.2995 31.7857C15.498 31.7934 15.6982 31.7969 15.8984 31.7969C24.6649 31.7969 31.7969 24.6649 31.7969 15.8984C31.7969 15.6982 31.7934 15.498 31.7857 15.2995Z" fill="#29E68B"/>
<path d="M31.4437 12.5562C31.6345 13.4456 31.7505 14.3626 31.7857 15.2993C37.3441 16.9012 41.4219 22.0342 41.4219 28.1014C41.4219 35.4465 35.4466 41.4217 28.1016 41.4217C22.0344 41.4217 16.9013 37.344 15.2995 31.7855C14.3627 31.7503 13.4458 31.6343 12.5563 31.4435C14.0955 38.6107 20.4815 43.9998 28.1016 43.9998C36.8681 43.9998 44 36.8679 44 28.1014C44 20.4813 38.6109 14.0953 31.4437 12.5562Z" fill="#F6F6F7"/>
</g>
<defs>
<clipPath id="clip0_1_2102">
<rect width="44" height="44" fill="white"/>
</clipPath>
</defs>
</svg>
