<svg width="44" height="44" viewBox="0 0 44 44" fill="none" xmlns="http://www.w3.org/2000/svg">
<path d="M37.8125 34.375H30.8619C31.3179 34.8238 31.68 35.3589 31.9272 35.9491C32.1743 36.5392 32.3016 37.1727 32.3016 37.8125C32.3016 38.4523 32.1743 39.0858 31.9272 39.6759C31.68 40.2661 31.3179 40.8012 30.8619 41.25H37.8125C42.3548 41.1084 42.3555 34.5159 37.8125 34.375ZM38.3419 18.3563C37.7988 18.3604 37.0666 18.4552 36.8913 17.7925C36.5668 16.6283 36.1004 15.5084 35.5025 14.4581C35.4186 14.3091 35.3866 14.1364 35.4115 13.9671C35.4364 13.7979 35.5167 13.6417 35.64 13.5231C37.1126 12.3454 37.5238 10.3352 36.1419 8.91L35.09 7.85813C33.6717 6.47969 31.6491 6.88669 30.4769 8.36C30.3581 8.48305 30.202 8.56329 30.0328 8.58816C29.8636 8.61304 29.691 8.58116 29.5419 8.4975C28.4916 7.89964 27.3717 7.43322 26.2075 7.10875C25.542 6.93825 25.6403 6.1875 25.6437 5.65812C25.6438 4.88803 25.3383 4.14938 24.7944 3.6042C24.2505 3.05901 23.5126 2.75182 22.7425 2.75H21.2575C19.2761 2.77956 18.15 4.47562 18.3563 6.3525C18.3584 6.52297 18.3043 6.6894 18.2024 6.82608C18.1005 6.96277 17.9565 7.0621 17.7925 7.10875C16.6283 7.43322 15.5084 7.89964 14.4581 8.4975C13.8724 8.85362 13.3898 8.23213 13.0213 7.85813C12.4742 7.31653 11.7354 7.01273 10.9656 7.01273C10.1958 7.01273 9.45709 7.31653 8.91 7.85813L7.85813 8.91C6.47969 10.3386 6.88188 12.3399 8.36 13.5231C8.48326 13.6417 8.56364 13.7979 8.58852 13.9671C8.61341 14.1364 8.58139 14.3091 8.4975 14.4581C7.89964 15.5084 7.43322 16.6283 7.10875 17.7925C7.06221 17.9565 6.9629 18.1007 6.82619 18.2026C6.68948 18.3045 6.523 18.3585 6.3525 18.3563C4.47562 18.1528 2.78094 19.2699 2.75 21.2575V22.7425C2.78025 24.7225 4.47425 25.85 6.3525 25.6437C6.52297 25.6416 6.6894 25.6957 6.82608 25.7976C6.96277 25.8995 7.0621 26.0435 7.10875 26.2075C7.43321 27.3717 7.89963 28.4916 8.4975 29.5419C8.855 30.1366 8.23281 30.6054 7.85813 30.9788C7.32352 31.5165 7.02008 32.2418 7.0125 33H36.9875C36.9601 32.5067 36.8253 32.0253 36.5926 31.5895C36.3598 31.1537 36.0347 30.774 35.64 30.4769C35.5167 30.3583 35.4364 30.2021 35.4115 30.0329C35.3866 29.8636 35.4186 29.6909 35.5025 29.5419C36.1004 28.4916 36.5668 27.3717 36.8913 26.2075C36.9378 26.0435 37.0371 25.8993 37.1738 25.7974C37.3105 25.6955 37.477 25.6415 37.6475 25.6437C39.5244 25.8459 41.2184 24.7314 41.25 22.7425V21.2575C41.2482 20.4874 40.941 19.7495 40.3958 19.2056C39.8506 18.6617 39.112 18.3562 38.3419 18.3563ZM22 31.625C19.4481 31.6223 17.0016 30.6073 15.1971 28.8029C13.3927 26.9984 12.3777 24.5519 12.375 22C12.9037 9.23106 31.0984 9.2345 31.625 22C31.6223 24.5519 30.6073 26.9984 28.8029 28.8029C26.9984 30.6073 24.5519 31.6223 22 31.625Z" fill="#F6F6F7"/>
<path d="M22 13.75C11.0577 14.1982 11.055 29.7997 22 30.25C24.188 30.25 26.2864 29.3808 27.8336 27.8336C29.3808 26.2865 30.25 24.188 30.25 22C30.25 19.812 29.3808 17.7135 27.8336 16.1664C26.2864 14.6192 24.188 13.75 22 13.75ZM30.9168 37.4894C30.8366 36.6383 30.4421 35.8476 29.8103 35.2718C29.1786 34.6959 28.3548 34.3762 27.5 34.375H6.18747C1.65685 34.5111 1.63485 41.1056 6.18747 41.25H27.5C27.9779 41.2482 28.4502 41.147 28.8868 40.9528C29.3235 40.7585 29.7149 40.4756 30.0363 40.1219C30.3577 39.7682 30.6019 39.3515 30.7535 38.8983C30.9051 38.4451 30.9607 37.9653 30.9168 37.4894ZM7.42497 37.3725L6.90247 38.7475C6.83515 38.9156 6.70432 39.0505 6.53831 39.1229C6.3723 39.1953 6.18446 39.1994 6.01544 39.1343C5.84643 39.0692 5.70984 38.9402 5.63524 38.7752C5.56065 38.6101 5.55404 38.4224 5.61685 38.2525L6.13935 36.8775C6.20667 36.7094 6.3375 36.5745 6.50351 36.5021C6.66952 36.4297 6.85737 36.4256 7.02638 36.4907C7.19539 36.5558 7.33198 36.6848 7.40658 36.8498C7.48118 37.0149 7.48779 37.2026 7.42497 37.3725ZM11.5981 37.3725L11.0756 38.7475C11.01 38.9171 10.8796 39.0536 10.7133 39.1271C10.547 39.2006 10.3583 39.205 10.1887 39.1394C10.0192 39.0737 9.8826 38.9434 9.80911 38.7771C9.73562 38.6108 9.73121 38.4221 9.79685 38.2525L10.3125 36.8775C10.3798 36.7094 10.5106 36.5745 10.6766 36.5021C10.8427 36.4297 11.0305 36.4256 11.1995 36.4907C11.3685 36.5558 11.5051 36.6848 11.5797 36.8498C11.6543 37.0149 11.6609 37.2026 11.5981 37.3725ZM15.7781 37.3725L15.2556 38.7475C15.1883 38.9156 15.0574 39.0505 14.8914 39.1229C14.7254 39.1953 14.5376 39.1994 14.3686 39.1343C14.1996 39.0692 14.063 38.9402 13.9884 38.7752C13.9138 38.6101 13.9072 38.4224 13.97 38.2525L14.4925 36.8775C14.5598 36.7094 14.6906 36.5745 14.8566 36.5021C15.0226 36.4297 15.2105 36.4256 15.3795 36.4907C15.5485 36.5558 15.6851 36.6848 15.7597 36.8498C15.8343 37.0149 15.8409 37.2026 15.7781 37.3725ZM19.9581 37.3725L19.4356 38.7475C19.3683 38.9156 19.2374 39.0505 19.0714 39.1229C18.9054 39.1953 18.7176 39.1994 18.5486 39.1343C18.3796 39.0692 18.243 38.9402 18.1684 38.7752C18.0938 38.6101 18.0872 38.4224 18.15 38.2525L18.6725 36.8775C18.7398 36.7094 18.8706 36.5745 19.0366 36.5021C19.2027 36.4297 19.3905 36.4256 19.5595 36.4907C19.7285 36.5558 19.8651 36.6848 19.9397 36.8498C20.0143 37.0149 20.0209 37.2026 19.9581 37.3725ZM24.1381 37.3656L23.6156 38.7406C23.5473 38.9049 23.418 39.0363 23.2547 39.1071C23.0915 39.1779 22.9072 39.1826 22.7406 39.1202C22.574 39.0579 22.4381 38.9333 22.3615 38.7727C22.2849 38.6121 22.2736 38.4281 22.33 38.2594L22.8525 36.8844C22.9208 36.7201 23.0501 36.5887 23.2133 36.5179C23.3765 36.4471 23.5608 36.4424 23.7275 36.5048C23.8941 36.5671 24.03 36.6917 24.1066 36.8523C24.1832 37.0129 24.1945 37.1969 24.1381 37.3656ZM28.3112 37.3725L27.7887 38.7475C27.7231 38.9171 27.5928 39.0536 27.4264 39.1271C27.2601 39.2006 27.0714 39.205 26.9018 39.1394C26.7323 39.0737 26.5957 38.9434 26.5222 38.7771C26.4487 38.6108 26.4443 38.4221 26.51 38.2525L27.0325 36.8775C27.0981 36.7079 27.2284 36.5714 27.3948 36.4979C27.5611 36.4244 27.7498 36.42 27.9193 36.4856C28.0889 36.5513 28.2255 36.6816 28.299 36.8479C28.3725 37.0142 28.3769 37.2029 28.3112 37.3725Z" fill="#29E68B"/>
</svg>
