<svg width="44" height="44" viewBox="0 0 44 44" fill="none" xmlns="http://www.w3.org/2000/svg">
<g clip-path="url(#clip0_1_2111)">
<path d="M42.7109 0H37.4688C36.7562 0 36.1797 0.576555 36.1797 1.28906V2.57812H25.6297C25.0958 1.08092 23.6784 0 22 0C20.3216 0 18.9042 1.08092 18.3703 2.57812H7.82031V1.28906C7.82031 0.576555 7.24376 0 6.53125 0H1.28906C0.576555 0 0 0.576555 0 1.28906V6.44531C0 7.15782 0.576555 7.73438 1.28906 7.73438H6.53125C7.24376 7.73438 7.82031 7.15782 7.82031 6.44531V5.13906H13.1144C8.64076 7.93384 5.69095 12.8425 5.33835 18.3404C3.79165 18.8466 2.66406 20.2864 2.66406 22C2.66406 24.1325 4.3988 25.8672 6.53125 25.8672C8.6637 25.8672 10.3984 24.1325 10.3984 22C10.3984 20.3552 9.36195 18.9567 7.91141 18.3986C8.35123 12.2691 12.6282 7.10291 18.5774 5.62891C19.2208 6.87302 20.5053 7.73438 22 7.73438C23.4947 7.73438 24.7792 6.87302 25.4226 5.62891C31.3718 7.10282 35.6488 12.269 36.0886 18.3985C34.6381 18.9567 33.6016 20.3552 33.6016 22C33.6016 24.1325 35.3363 25.8672 37.4688 25.8672C39.6012 25.8672 41.3359 24.1325 41.3359 22C41.3359 20.2864 40.2084 18.8466 38.6616 18.3404C38.309 12.8425 35.3592 7.95102 30.8856 5.15625H36.1797V6.44531C36.1797 7.15782 36.7562 7.73438 37.4688 7.73438H42.7109C43.4234 7.73438 44 7.15782 44 6.44531V1.28906C44 0.576555 43.4234 0 42.7109 0ZM30.7699 42.4011C30.0957 40.3379 28.1531 38.7578 25.8672 38.7578H18.1328C15.8469 38.7578 13.9043 40.3379 13.2301 42.4011C12.9701 43.1967 13.6469 44 14.4839 44H29.5161C30.353 44 31.0299 43.1967 30.7699 42.4011Z" fill="#29E68B"/>
<path d="M33.385 26.4414L23.2891 11.2974V23.5266C24.7863 24.0605 25.8672 25.478 25.8672 27.1564C25.8672 29.2888 24.1325 31.0235 22 31.0235C19.8676 31.0235 18.1328 29.2888 18.1328 27.1564C18.1328 25.478 19.2137 24.0605 20.7109 23.5266V11.2974L10.615 26.4414C10.2738 26.9524 10.3418 27.6335 10.7761 28.0678C13.1426 30.4343 14.6553 33.4829 15.2391 36.7531C16.1345 36.3898 17.1084 36.1798 18.1328 36.1798H25.8672C26.8916 36.1798 27.8655 36.3897 28.761 36.7529C29.3447 33.4826 30.8574 30.4343 33.2239 28.0678C33.6582 27.6335 33.7262 26.9524 33.385 26.4414Z" fill="#F6F6F7"/>
<path d="M22 25.8672C21.2888 25.8672 20.7109 26.445 20.7109 27.1562C20.7109 27.8675 21.2888 28.4453 22 28.4453C22.7112 28.4453 23.2891 27.8675 23.2891 27.1562C23.2891 26.445 22.7112 25.8672 22 25.8672Z" fill="#F6F6F7"/>
</g>
<defs>
<clipPath id="clip0_1_2111">
<rect width="44" height="44" fill="white"/>
</clipPath>
</defs>
</svg>
