<svg width="20" height="20" viewBox="0 0 20 20" fill="none" xmlns="http://www.w3.org/2000/svg">
<g clip-path="url(#clip0_1_308)">
<path d="M17.2133 12.3796C16.2175 11.4279 14.6392 11.4287 13.645 12.3854L12.425 13.3562C9.76 12.2254 7.86333 10.3246 6.64833 7.56708L7.61417 6.35374C8.56917 5.36041 8.57 3.78291 7.61917 2.78624C7.61917 2.78624 6.07583 0.780409 6.05 0.754576C5.045 -0.252091 3.40667 -0.251258 2.44417 0.715409L1.48667 1.55124C0.528333 2.50958 0 3.80374 0 5.19791C0 11.5612 8.43833 19.9996 14.8017 19.9996C16.1958 19.9996 17.4908 19.4721 18.4858 18.4721L19.2458 17.5971C20.25 16.5912 20.25 14.9554 19.2458 13.9504C19.2208 13.9246 17.2142 12.3812 17.2142 12.3812L17.2133 12.3796ZM18.0275 16.4596L17.2675 17.3346C16.625 17.9779 15.75 18.3321 14.8017 18.3321C9.81083 18.3321 1.66667 10.9946 1.66667 5.19708C1.66667 4.24874 2.02083 3.37291 2.62167 2.76958L3.58 1.93208C3.75833 1.75458 3.99167 1.66541 4.22583 1.66541C4.445 1.66541 4.66417 1.74374 4.8375 1.90124C4.8375 1.90124 6.3725 3.89541 6.3975 3.92041C6.75417 4.27624 6.75417 4.85624 6.3975 5.21124C6.375 5.23374 5.035 6.91458 5.035 6.91458C4.8475 7.14874 4.8025 7.46541 4.91333 7.74374C6.34083 11.3004 8.81417 13.7704 12.2642 15.0871C12.5375 15.1921 12.8492 15.1437 13.08 14.9612C13.08 14.9612 14.7617 13.6212 14.7833 13.5987C15.1283 13.2537 15.7292 13.2537 16.0742 13.5987C16.0992 13.6246 18.095 15.1596 18.095 15.1596C18.4183 15.5179 18.4067 16.0737 18.0242 16.4596H18.0275ZM19.2675 0.732076C18.7958 0.259576 18.1683 -0.00042426 17.5 -0.00042426H14.1667C12.7883 0.00124241 11.6667 1.12291 11.6667 2.50041V8.01791C11.6692 8.44707 11.9058 8.83708 12.2867 9.03541C12.4492 9.12041 12.625 9.16291 12.8042 9.16291C13.045 9.16291 13.2925 9.08458 13.5208 8.92458L15.2933 7.49958H17.4992C18.8775 7.49958 19.9992 6.37791 19.9992 4.99958V2.49958C19.9992 1.83124 19.7383 1.20374 19.2667 0.731242L19.2675 0.732076ZM18.3333 4.99958C18.3333 5.45874 17.96 5.83291 17.5 5.83291H15C14.81 5.83291 14.6258 5.89791 14.4775 6.01708L13.3342 6.93791V2.50124C13.3342 2.04208 13.7075 1.66791 14.1667 1.66791H17.5C17.7233 1.66791 17.9325 1.75374 18.0892 1.91124C18.2458 2.06874 18.3333 2.27791 18.3333 2.50124V5.00124V4.99958Z" fill="#141414"/>
</g>
<defs>
<clipPath id="clip0_1_308">
<rect width="20" height="20" fill="white"/>
</clipPath>
</defs>
</svg>
