<svg width="95" height="26" viewBox="0 0 95 26" fill="none" xmlns="http://www.w3.org/2000/svg">
<path d="M2.09084 8.2699V14.1215H0.596939V1.07857H3.29686C3.99429 1.05917 4.69191 1.10953 5.37959 1.22891C5.79463 1.31762 6.18868 1.4873 6.53981 1.72851C6.96247 2.04057 7.29464 2.46204 7.50158 2.9488C7.73037 3.49254 7.84832 4.07758 7.84832 4.66871C7.84832 5.25985 7.73037 5.84487 7.50158 6.38861C7.29345 6.87465 6.96151 7.29582 6.53981 7.60891C6.19178 7.85428 5.79875 8.02642 5.38395 8.11515C4.6951 8.2371 3.99585 8.28821 3.29686 8.26768H2.09084V8.2699ZM2.09084 6.8617H2.86505C4.17357 6.8617 5.05682 6.70622 5.51481 6.39525C5.97279 6.08428 6.1996 5.53898 6.19524 4.75935C6.19524 3.92813 5.96406 3.3423 5.49736 3.00407C5.03065 2.66584 4.15394 2.49783 2.86505 2.49783H2.09084V6.8617Z" fill="#F5F2F7"/>
<path d="M15.7933 10.2595H9.43168V10.3856C9.39694 11.1614 9.66218 11.9205 10.171 12.5012C10.4158 12.7677 10.7142 12.9777 11.0461 13.1169C11.378 13.2561 11.7356 13.3213 12.0945 13.3081C12.6138 13.3135 13.1225 13.1594 13.5535 12.8659C14.0334 12.52 14.4276 12.066 14.705 11.5395L15.7519 12.2514C15.3929 12.938 14.858 13.5138 14.2034 13.9182C13.5399 14.3015 12.7861 14.4949 12.0226 14.4775C10.7969 14.4775 9.8068 14.0678 9.05222 13.2484C8.29763 12.429 7.91525 11.3546 7.90508 10.0252C7.90508 8.74744 8.28019 7.70179 9.03041 6.88827C9.39844 6.48725 9.84698 6.17083 10.3458 5.96033C10.8447 5.74984 11.3822 5.65014 11.9222 5.66797C13.1115 5.66797 14.0529 6.0541 14.7465 6.82636C15.44 7.59862 15.7875 8.65239 15.7889 9.98764L15.7933 10.2595ZM14.3168 9.12989C14.3129 8.81907 14.2483 8.51211 14.1266 8.22676C14.005 7.94142 13.8287 7.68334 13.6081 7.46746C13.185 7.07838 12.6027 6.88384 11.8634 6.88384C11.25 6.86314 10.6522 7.0815 10.1928 7.49399C9.73911 7.91981 9.46231 8.5047 9.4186 9.12989H14.3168Z" fill="#F5F2F7"/>
<path d="M17.8672 14.1304V5.97963H19.2107V7.23529C19.5224 6.74549 19.9516 6.34387 20.4581 6.06805C20.9822 5.80469 21.5613 5.6735 22.1461 5.68561C23.0941 5.68561 23.8356 5.94132 24.3706 6.45272C24.9056 6.96412 25.1717 7.67374 25.1688 8.58159V14.1304H23.7643V9.3288C23.7643 8.50348 23.5928 7.89038 23.2496 7.48951C22.9065 7.08865 22.3773 6.88822 21.662 6.88822C21.2778 6.88056 20.8964 6.95592 20.5432 7.10928C20.2159 7.25235 19.9277 7.47387 19.7035 7.7548C19.533 7.96937 19.4089 8.21793 19.3393 8.48432C19.2476 8.9536 19.2103 9.43214 19.2281 9.9102V14.1237L17.8672 14.1304Z" fill="#F5F2F7"/>
<path d="M28.1043 7.12923H26.6278V5.97967H28.1043V2.6924H29.5109V5.97967H30.9874V7.12923H29.5109V14.1304H28.1043V7.12923Z" fill="#F5F2F7"/>
<path d="M40.0402 5.97967V14.1304H38.7033V12.6515C38.4171 13.2069 37.9913 13.6759 37.4689 14.011C36.9622 14.324 36.3786 14.4857 35.7853 14.4775C35.2613 14.4974 34.7394 14.3996 34.2572 14.1909C33.7749 13.9822 33.3442 13.6679 32.9959 13.2705C32.2893 12.4658 31.936 11.4017 31.936 10.0783C31.936 8.7548 32.2792 7.68705 32.9654 6.87499C33.6502 6.0821 34.5669 5.68565 35.7155 5.68565C36.3308 5.65918 36.94 5.81862 37.4657 6.14373C37.9915 6.46884 38.4101 6.94497 38.6684 7.51167V5.97967H40.0402ZM38.7033 10.1313C38.7033 9.21167 38.4547 8.46888 37.9618 7.92064C37.7195 7.64452 37.4201 7.42591 37.085 7.28033C36.75 7.13476 36.3873 7.0658 36.023 7.07837C35.1957 7.07837 34.5509 7.33628 34.0886 7.85211C33.6262 8.36793 33.395 9.09008 33.395 10.0186C33.395 11.0045 33.6277 11.7643 34.0929 12.2978C34.5582 12.8313 35.219 13.0988 36.0753 13.1002C36.4336 13.1194 36.7917 13.0596 37.1249 12.9249C37.4581 12.7902 37.7585 12.5837 38.0054 12.3199C38.4706 11.7923 38.7033 11.0627 38.7033 10.1313Z" fill="#F5F2F7"/>
<path d="M52.9226 6.88833C53.6729 7.18329 54.328 7.68291 54.8156 8.33191C55.2483 8.95372 55.4723 9.70005 55.4546 10.4608C55.4546 11.6619 55.078 12.6287 54.3249 13.3612C53.5717 14.0937 52.5744 14.4621 51.3327 14.4665C50.4203 14.4983 49.5234 14.2214 48.7833 13.6795C48.0763 13.1196 47.5848 12.3266 47.3941 11.4379L48.7833 10.7437C48.9119 11.4213 49.2342 12.0456 49.7102 12.5388C50.1513 12.9497 50.7339 13.1688 51.3327 13.149C52.0152 13.1828 52.6836 12.9448 53.1952 12.4858C53.4301 12.2623 53.6151 11.9904 53.7377 11.6884C53.8603 11.3864 53.9178 11.0613 53.9062 10.7349C53.9165 10.1863 53.7419 9.65052 53.4111 9.21618C53.0081 8.73252 52.4934 8.35737 51.9128 8.1241L50.347 7.44764C49.5976 7.16387 48.9376 6.68043 48.4365 6.04828C48.0105 5.45463 47.7897 4.73504 47.8084 4.00119C47.7988 3.56531 47.8853 3.13276 48.0615 2.73503C48.2377 2.3373 48.4992 1.98441 48.8269 1.70208C49.5515 1.0799 50.4798 0.755709 51.4287 0.793499C52.1302 0.77505 52.8238 0.947577 53.4373 1.29311C54.0129 1.63722 54.4733 2.1486 54.7589 2.761L53.494 3.58116C53.2589 3.13698 52.9288 2.75176 52.5278 2.45372C52.1702 2.20819 51.7471 2.07938 51.3153 2.08454C51.0569 2.07512 50.7993 2.11753 50.5571 2.20933C50.315 2.30114 50.0931 2.44054 49.9043 2.61952C49.5785 2.95609 49.3857 3.40203 49.3624 3.87295C49.3391 4.34387 49.4869 4.80712 49.7778 5.17506C50.1403 5.57251 50.5879 5.88033 51.0863 6.0748L52.9226 6.88833Z" fill="#F5F2F7"/>
<path d="M57.5634 7.12923H56.087V5.97967H57.5634V2.6924H58.9679V5.97967H60.4444V7.12923H58.9679V14.1304H57.5634V7.12923Z" fill="#F5F2F7"/>
<path d="M63.2992 5.97963V9.98758C63.2992 11.1666 63.4707 11.9853 63.8139 12.4436C64.157 12.902 64.7386 13.1348 65.5586 13.1422C66.3713 13.1422 66.9463 12.9123 67.2836 12.4525C67.621 11.9927 67.7896 11.171 67.7896 9.98758V5.97963H69.1875V10.737C69.1875 11.9661 68.8771 12.8968 68.2563 13.5291C67.6355 14.1613 66.721 14.4775 65.5128 14.4775C64.3177 14.4775 63.4097 14.1599 62.7889 13.5247C62.168 12.8895 61.8576 11.9602 61.8576 10.737V5.97963H63.2992Z" fill="#F5F2F7"/>
<path d="M79.3395 0.322617V14.1305H78.0048V12.6516C77.7188 13.2053 77.2938 13.6727 76.7726 14.0067C76.2656 14.3214 75.6812 14.4846 75.0868 14.4776C74.5624 14.4977 74.0402 14.3999 73.5576 14.1912C73.0749 13.9825 72.6438 13.6681 72.2953 13.2705C71.5901 12.4659 71.2375 11.4018 71.2375 10.0783C71.2375 8.75487 71.5829 7.68859 72.2735 6.87948C72.617 6.48479 73.0432 6.17281 73.5208 5.96629C73.9985 5.75976 74.5156 5.66391 75.0344 5.68571C75.6468 5.66119 76.2526 5.82166 76.7749 6.14678C77.2971 6.47189 77.7123 6.94699 77.9677 7.51173V0.322617H79.3395ZM78.0048 10.096C78.0415 9.29425 77.7738 8.5087 77.2567 7.90081C77.009 7.6256 76.7051 7.40846 76.3661 7.26452C76.0271 7.12058 75.6612 7.0533 75.294 7.06739C74.4798 7.06739 73.8444 7.3194 73.3879 7.82343C72.9314 8.32747 72.7031 9.02531 72.7031 9.91695C72.7031 10.9206 72.9343 11.7061 73.3966 12.2735C73.6291 12.5558 73.9231 12.7795 74.2553 12.9272C74.5876 13.0749 74.9491 13.1425 75.3114 13.1246C76.1561 13.1246 76.8169 12.8571 77.2938 12.3222C77.7707 11.7872 78.0077 11.0451 78.0048 10.096Z" fill="#F5F2F7"/>
<path d="M81.8889 2.05131C81.8892 1.84955 81.9486 1.65243 82.0596 1.485C82.1707 1.31758 82.3284 1.18742 82.5127 1.1111C82.6969 1.03478 82.8994 1.01575 83.0943 1.05641C83.2893 1.09708 83.4679 1.19562 83.6075 1.33948C83.7021 1.43491 83.7767 1.5487 83.8269 1.67405C83.8771 1.7994 83.9019 1.93373 83.8997 2.069C83.9 2.20192 83.8742 2.33358 83.8239 2.45633C83.7736 2.57908 83.6998 2.69048 83.6066 2.78406C83.5135 2.87763 83.403 2.95152 83.2814 3.00144C83.1599 3.05136 83.0298 3.07632 82.8987 3.07485C82.766 3.07766 82.6341 3.05304 82.5112 3.00249C82.3882 2.95194 82.2766 2.87652 82.1834 2.78083C82.0871 2.68654 82.0112 2.57301 81.9605 2.44742C81.9099 2.32184 81.8855 2.18695 81.8889 2.05131ZM82.2139 14.1304V5.97968H83.6009V14.1304H82.2139Z" fill="#F5F2F7"/>
<path d="M85.8516 10.0782C85.8486 9.49612 85.959 8.91915 86.1765 8.38042C86.625 7.30507 87.4748 6.45316 88.5406 6.01059C89.0771 5.79222 89.6504 5.68184 90.2286 5.68561C90.7993 5.6831 91.3648 5.79504 91.8926 6.015C92.4247 6.24067 92.9095 6.56704 93.3211 6.97665C93.7299 7.37628 94.0528 7.85719 94.2697 8.38926C94.4885 8.9246 94.5997 9.49878 94.5969 10.0782C94.6003 10.6541 94.489 11.2248 94.2697 11.7561C94.0521 12.2852 93.7292 12.7631 93.3211 13.1599C92.9083 13.5767 92.4204 13.9091 91.8839 14.1392C91.3601 14.3635 90.7971 14.4785 90.2286 14.4775C89.6511 14.4809 89.0787 14.3674 88.545 14.1437C88.0146 13.9216 87.5323 13.5964 87.1252 13.1864C86.7222 12.7768 86.4002 12.2928 86.1765 11.7605C85.9581 11.2275 85.8476 10.6554 85.8516 10.0782ZM87.3106 10.0782C87.3018 10.4819 87.3727 10.8832 87.5191 11.2587C87.6656 11.6342 87.8846 11.9762 88.1633 12.2646C88.4274 12.5502 88.7477 12.7764 89.1034 12.9288C89.4592 13.0811 89.8425 13.1561 90.2286 13.1488C90.6121 13.1556 90.9927 13.0804 91.3455 12.928C91.6984 12.7757 92.0156 12.5496 92.2764 12.2646C92.8192 11.6694 93.1206 10.8887 93.1206 10.0782C93.1206 9.26773 92.8192 8.48703 92.2764 7.89186C92.0159 7.60639 91.6988 7.38003 91.3458 7.22763C90.9929 7.07523 90.6121 7.00023 90.2286 7.00759C89.8416 6.99906 89.4573 7.07342 89.1006 7.2258C88.744 7.37817 88.4231 7.60514 88.1589 7.89186C87.8814 8.18093 87.6634 8.52315 87.5178 8.89854C87.3721 9.27392 87.3017 9.67494 87.3106 10.0782Z" fill="#F5F2F7"/>
<path d="M0.658005 23.71L0.976417 23.5376C1.02585 23.726 1.13458 23.8929 1.2861 24.0129C1.43848 24.1273 1.62435 24.1864 1.81387 24.1809C1.92535 24.1876 2.03697 24.1704 2.14144 24.1304C2.24591 24.0904 2.34089 24.0285 2.42015 23.9488C2.4966 23.8615 2.55523 23.7596 2.59266 23.6492C2.63009 23.5388 2.64558 23.422 2.63824 23.3055C2.64538 23.1271 2.59399 22.9514 2.49212 22.8059C2.31372 22.6123 2.09959 22.4561 1.86185 22.346C1.55423 22.2032 1.27488 22.0046 1.03748 21.7602C0.900446 21.5893 0.827787 21.3747 0.832478 21.1545C0.828048 21.0198 0.852237 20.8858 0.903413 20.7614C0.954588 20.6371 1.03155 20.5254 1.12907 20.4338C1.33853 20.2431 1.6133 20.1432 1.89456 20.1553C2.0818 20.1508 2.26689 20.1965 2.43105 20.2879C2.58936 20.3812 2.718 20.5186 2.8018 20.6836L2.51393 20.8583C2.45821 20.7434 2.36918 20.6485 2.25876 20.5863C2.1402 20.522 2.00718 20.49 1.87275 20.4935C1.78465 20.4889 1.69655 20.5023 1.61372 20.5331C1.53089 20.5639 1.45506 20.6113 1.39078 20.6726C1.33024 20.7373 1.28321 20.8137 1.25248 20.8973C1.22175 20.9808 1.20797 21.0698 1.21195 21.1589C1.21195 21.4507 1.44748 21.7226 1.92291 21.9746L2.11919 22.0786C2.38922 22.2093 2.62806 22.3979 2.81925 22.6312C2.94104 22.8298 3.00178 23.0607 2.99372 23.2944C3.00693 23.4572 2.98501 23.6209 2.92951 23.7742C2.87401 23.9276 2.78625 24.0668 2.67232 24.1823C2.55839 24.2978 2.42103 24.3867 2.26978 24.443C2.11852 24.4993 1.95699 24.5215 1.79642 24.5081C1.55138 24.5149 1.31038 24.4438 1.10726 24.3047C0.903284 24.1554 0.747067 23.9486 0.658005 23.71Z" fill="#B2B2B2"/>
<path d="M4.11906 24.4086H3.77666V21.8906H4.11906V22.2841C4.19259 22.1354 4.30499 22.01 4.444 21.9216C4.58414 21.8363 4.7451 21.7926 4.90853 21.7956C5.07218 21.7908 5.23365 21.8346 5.37306 21.9216C5.50602 22.0123 5.60868 22.1418 5.66747 22.293C5.75442 22.1382 5.88003 22.0093 6.03168 21.9194C6.18551 21.8348 6.35833 21.7922 6.53327 21.7956C6.64792 21.7895 6.76256 21.808 6.86966 21.8499C6.97677 21.8918 7.07394 21.9562 7.15482 22.0387C7.30998 22.2226 7.38823 22.4605 7.37291 22.702V24.4042H7.0327V22.8412C7.0465 22.6436 6.99342 22.4471 6.88221 22.2841C6.82835 22.2213 6.76108 22.1717 6.68551 22.1392C6.60994 22.1066 6.52805 22.0919 6.44604 22.0962C6.34628 22.0885 6.24617 22.106 6.15478 22.1473C6.06339 22.1886 5.98361 22.2523 5.92263 22.3328C5.79474 22.5594 5.73699 22.8197 5.75688 23.08V24.4064H5.41449V22.8434C5.43028 22.6441 5.38043 22.4451 5.27273 22.2775C5.21823 22.216 5.15063 22.1679 5.07505 22.1369C4.99947 22.1059 4.9179 22.0927 4.83656 22.0984C4.73495 22.0902 4.63294 22.1078 4.53967 22.1494C4.4464 22.1911 4.36482 22.2556 4.30225 22.3372C4.17122 22.5619 4.1111 22.8218 4.12996 23.0822L4.11906 24.4086Z" fill="#B2B2B2"/>
<path d="M10.1339 24.4086V23.9487C10.064 24.1232 9.94279 24.2716 9.78667 24.3737C9.63055 24.4758 9.44718 24.5265 9.26155 24.5191C9.09796 24.5276 8.93459 24.4986 8.78357 24.4343C8.63255 24.37 8.49775 24.272 8.3892 24.1477C8.16204 23.874 8.0452 23.5234 8.06207 23.1662C8.04669 22.8085 8.16157 22.4576 8.38484 22.1802C8.55339 21.9873 8.78174 21.8583 9.03227 21.8145C9.2828 21.7707 9.54058 21.8147 9.76315 21.9392C9.92093 22.0361 10.0457 22.1796 10.1208 22.3504V21.8906H10.4654V24.4086H10.1339ZM8.45899 23.1684C8.44129 23.4372 8.51861 23.7037 8.67708 23.92C8.75338 24.0092 8.84897 24.0794 8.9564 24.125C9.06383 24.1706 9.1802 24.1905 9.29645 24.1831C9.41444 24.1883 9.53197 24.1649 9.6393 24.115C9.74662 24.065 9.84066 23.9898 9.91363 23.8957C10.0733 23.664 10.1502 23.384 10.1317 23.1021C10.1477 22.8409 10.0703 22.5827 9.91363 22.3747C9.83771 22.2867 9.74319 22.2171 9.63709 22.1712C9.531 22.1252 9.41605 22.1042 9.30081 22.1095C9.18329 22.1046 9.06629 22.1277 8.95913 22.1768C8.85197 22.2259 8.75763 22.2998 8.68362 22.3924C8.5223 22.6169 8.4429 22.8911 8.45899 23.1684Z" fill="#B2B2B2"/>
<path d="M11.7456 22.3969C11.839 22.2191 11.9666 22.062 12.1207 21.9348C12.2029 21.8758 12.2963 21.8345 12.395 21.8136C12.4937 21.7927 12.5955 21.7925 12.6942 21.8132C12.744 21.8224 12.7928 21.8357 12.8404 21.853L12.7291 22.1802C12.6905 22.1688 12.6511 22.1599 12.6114 22.1537C12.5734 22.145 12.5347 22.1406 12.4958 22.1404C12.3904 22.1429 12.2872 22.1711 12.195 22.2227C12.1027 22.2743 12.0241 22.3477 11.9658 22.4366C11.8151 22.6501 11.7384 22.9082 11.7477 23.1706V24.4086H11.3944V21.8906H11.739L11.7456 22.3969Z" fill="#B2B2B2"/>
<path d="M13.2809 22.1891H12.8229V21.8906H13.2809V20.8583H13.6189V21.8906H14.1162V22.1891H13.6189V24.3998H13.2809V22.1891Z" fill="#B2B2B2"/>
<path d="M16.6285 24.4086H16.2861V20.0093H16.6285V22.3504C16.7035 22.1802 16.8274 22.0369 16.984 21.9392C17.149 21.8411 17.338 21.7921 17.5292 21.7978C17.6872 21.7938 17.8441 21.8261 17.988 21.8924C18.1319 21.9586 18.2591 22.057 18.3601 22.1802C18.5819 22.4583 18.6959 22.8089 18.6807 23.1662C18.6984 23.5232 18.5824 23.8738 18.3558 24.1477C18.2484 24.2706 18.1154 24.3676 17.9664 24.4319C17.8174 24.4961 17.6561 24.5259 17.4943 24.5191C17.3083 24.5285 17.1241 24.4786 16.9676 24.3762C16.8111 24.2739 16.6902 24.1244 16.622 23.9488L16.6285 24.4086ZM18.2991 23.1772C18.3171 22.9008 18.24 22.6266 18.081 22.4013C18.0042 22.3139 17.9103 22.2437 17.8052 22.195C17.7002 22.1464 17.5864 22.1204 17.4709 22.1188C17.3555 22.1171 17.2409 22.1398 17.1346 22.1854C17.0282 22.231 16.9324 22.2985 16.8532 22.3836C16.6979 22.5923 16.6207 22.85 16.6351 23.1109C16.6166 23.3929 16.6935 23.6728 16.8532 23.9045C16.9261 23.9987 17.0202 24.0739 17.1275 24.1238C17.2348 24.1738 17.3523 24.1971 17.4703 24.1919C17.5861 24.1993 17.7019 24.1796 17.8089 24.1343C17.9159 24.0891 18.0112 24.0196 18.0875 23.9311C18.2436 23.7098 18.317 23.4395 18.2947 23.1684L18.2991 23.1772Z" fill="#B2B2B2"/>
<path d="M19.0428 21.8906H19.4113L20.1223 23.8603L20.7765 21.8906H21.1429L19.8584 25.6753H19.5029L19.9391 24.3909L19.0428 21.8906Z" fill="#B2B2B2"/>
<path d="M22.8353 24.4086L24.6345 20.089L26.3596 24.4086H25.9539L25.4305 23.0004H23.7556L23.2126 24.4086H22.8353ZM23.8821 22.6777H25.3084L24.6083 20.8693L23.8821 22.6777Z" fill="#B2B2B2"/>
<path d="M26.8175 24.4085V20.2547H27.1905V24.4085H26.8175Z" fill="#B2B2B2"/>
<path d="M29.8642 24.4086V20.2548H30.5032C30.9084 20.2421 31.3139 20.2702 31.7136 20.3388C31.9384 20.3888 32.1493 20.4893 32.3308 20.6328C32.5606 20.8197 32.7394 21.0633 32.8498 21.3402C33.0913 21.9808 33.0913 22.6892 32.8498 23.3298C32.7429 23.6044 32.5651 23.8449 32.3352 24.0262C32.1552 24.1654 31.9488 24.2655 31.7289 24.3202C31.3662 24.3917 30.9968 24.4214 30.6275 24.4086H29.8642ZM30.2372 24.0814H30.7606C31.0625 24.092 31.3646 24.0683 31.6613 24.0107C31.829 23.9669 31.9839 23.8827 32.1127 23.7653C32.2877 23.5966 32.4208 23.3883 32.5009 23.1574C32.6768 22.6153 32.6768 22.0304 32.5009 21.4883C32.4219 21.2595 32.2869 21.0549 32.1083 20.8937C31.9715 20.7714 31.8077 20.6842 31.6307 20.6394C31.3042 20.5791 30.9723 20.5546 30.6406 20.5665H30.2372V24.0814Z" fill="#B2B2B2"/>
<path d="M35.9423 23.1684H33.9686C33.9615 23.4441 34.046 23.7143 34.2085 23.9355C34.2816 24.0267 34.3746 24.0993 34.4803 24.1477C34.5859 24.196 34.7012 24.2187 34.8169 24.2141C34.9886 24.217 35.1567 24.1643 35.2967 24.0637C35.4492 23.9453 35.568 23.7882 35.6413 23.6083L35.9575 23.7852C35.8545 24.0114 35.6943 24.2059 35.493 24.3489C35.2894 24.4734 35.0546 24.5356 34.8169 24.528C34.654 24.5327 34.492 24.5022 34.3416 24.4385C34.1912 24.3749 34.0559 24.2795 33.9446 24.1588C33.7115 23.8914 33.5903 23.5426 33.6066 23.1861C33.5899 22.8224 33.709 22.4656 33.9402 22.1869C34.049 22.0622 34.1835 21.9634 34.3344 21.8976C34.4852 21.8319 34.6485 21.8008 34.8126 21.8067C34.9674 21.8002 35.1217 21.8283 35.2645 21.889C35.4073 21.9498 35.5353 22.0417 35.6391 22.1581C35.8565 22.4184 35.968 22.7527 35.951 23.0933L35.9423 23.1684ZM35.5323 22.87C35.5332 22.7695 35.5135 22.67 35.4743 22.5777C35.4351 22.4855 35.3773 22.4025 35.3046 22.3343C35.2319 22.266 35.1459 22.2139 35.0521 22.1812C34.9584 22.1486 34.859 22.1362 34.7603 22.1449C34.5661 22.1391 34.3775 22.2105 34.2347 22.3438C34.0914 22.4822 34.0043 22.6699 33.9904 22.87H35.5323Z" fill="#B2B2B2"/>
<path d="M36.3763 23.9598L36.7034 23.7696C36.7471 23.8975 36.8296 24.0081 36.9389 24.0858C37.051 24.1594 37.1827 24.1964 37.3162 24.1919C37.4413 24.1996 37.5648 24.1603 37.663 24.0813C37.7053 24.0442 37.7388 23.9979 37.7611 23.9459C37.7834 23.8938 37.7938 23.8374 37.7916 23.7807C37.7916 23.5884 37.6237 23.4248 37.2857 23.2899L37.2006 23.2568C36.9983 23.1883 36.812 23.0785 36.6532 22.934C36.6016 22.8798 36.5611 22.8157 36.5342 22.7455C36.5072 22.6753 36.4943 22.6004 36.4962 22.525C36.4927 22.4265 36.5104 22.3285 36.548 22.2376C36.5857 22.1467 36.6424 22.0653 36.7143 21.9989C36.8747 21.8579 37.0823 21.7844 37.2944 21.7933C37.4749 21.7876 37.6532 21.8335 37.8091 21.9259C37.9515 22.0144 38.0611 22.1481 38.1209 22.3062L37.8047 22.4852C37.7712 22.3743 37.7021 22.2778 37.6084 22.2111C37.5082 22.1467 37.3912 22.1143 37.2726 22.1183C37.1641 22.115 37.0584 22.1528 36.976 22.2244C36.9389 22.2574 36.9093 22.2983 36.8894 22.3441C36.8694 22.3899 36.8595 22.4396 36.8604 22.4897C36.8596 22.5388 36.8695 22.5874 36.8895 22.6322C36.9095 22.6769 36.939 22.7166 36.976 22.7483C37.1207 22.8492 37.2816 22.924 37.4514 22.9694C37.6578 23.0255 37.8468 23.1334 38.001 23.2833C38.1022 23.4181 38.1525 23.5851 38.1428 23.7542C38.1469 23.8591 38.127 23.9637 38.0846 24.0595C38.0422 24.1554 37.9785 24.2401 37.8985 24.3068C37.7124 24.4541 37.48 24.528 37.2442 24.5146C37.0525 24.52 36.8632 24.4693 36.699 24.3687C36.5499 24.2722 36.4364 24.1284 36.3763 23.9598Z" fill="#B2B2B2"/>
<path d="M38.7818 20.9091C38.7813 20.8739 38.788 20.8391 38.8015 20.8067C38.815 20.7743 38.8351 20.7452 38.8603 20.7212C38.9108 20.6713 38.9785 20.6435 39.049 20.6435C39.1195 20.6435 39.1871 20.6713 39.2376 20.7212C39.2632 20.7451 39.2836 20.7742 39.2975 20.8065C39.3114 20.8389 39.3185 20.8738 39.3183 20.9091C39.3193 20.9446 39.3128 20.9799 39.2993 21.0127C39.2858 21.0455 39.2655 21.075 39.2398 21.0992C39.2146 21.1245 39.1846 21.1444 39.1516 21.1577C39.1187 21.171 39.0834 21.1774 39.0479 21.1766C39.0131 21.1772 38.9785 21.1707 38.9463 21.1574C38.9141 21.1441 38.8848 21.1243 38.8603 21.0992C38.8347 21.075 38.8144 21.0455 38.8008 21.0127C38.7873 20.9799 38.7808 20.9446 38.7818 20.9091ZM38.8691 24.4086V21.8906H39.2245V24.4086H38.8691Z" fill="#B2B2B2"/>
<path d="M42.3497 21.8906V23.9709C42.3497 24.3025 42.3497 24.5545 42.3235 24.7292C42.3143 24.8628 42.2841 24.9942 42.2341 25.1182C42.155 25.3002 42.0152 25.4481 41.8393 25.5361C41.6296 25.6361 41.3993 25.6838 41.1676 25.6753C40.8975 25.6905 40.6292 25.6227 40.3978 25.4808C40.3038 25.412 40.2253 25.3239 40.1674 25.2221C40.1096 25.1204 40.0736 25.0074 40.0619 24.8905H40.4981C40.5077 24.9615 40.5322 25.0295 40.5698 25.0901C40.6074 25.1507 40.6573 25.2025 40.7162 25.242C40.8621 25.3283 41.0295 25.3697 41.1982 25.3614C41.3397 25.364 41.4802 25.3361 41.6103 25.2796C41.7217 25.2345 41.8179 25.1577 41.8873 25.0585C41.9304 24.9913 41.96 24.9162 41.9745 24.8375C41.9953 24.7119 42.004 24.5845 42.0007 24.4572V23.9466C41.9295 24.1207 41.8068 24.2682 41.6496 24.3688C41.4878 24.4718 41.2998 24.5248 41.1087 24.5213C40.9511 24.5278 40.794 24.4979 40.6493 24.4339C40.5046 24.37 40.3761 24.2737 40.2735 24.1522C40.066 23.8631 39.9543 23.5148 39.9543 23.1574C39.9543 22.7999 40.066 22.4516 40.2735 22.1626C40.3778 22.0399 40.508 21.9426 40.6545 21.8779C40.801 21.8133 40.96 21.7829 41.1196 21.789C41.3081 21.7867 41.4931 21.8405 41.6518 21.9437C41.806 22.0406 41.9259 22.1846 41.9942 22.3549V21.8818L42.3497 21.8906ZM41.1633 22.1117C41.0469 22.1066 40.9309 22.1294 40.8249 22.1781C40.7188 22.2269 40.6255 22.3003 40.5526 22.3925C40.3948 22.615 40.3177 22.886 40.3345 23.1596C40.3213 23.4293 40.3981 23.6957 40.5526 23.9156C40.6223 24.0045 40.7119 24.0753 40.8139 24.1222C40.9159 24.1691 41.0274 24.1907 41.1393 24.1853C41.2599 24.1901 41.3799 24.1669 41.4903 24.1175C41.6006 24.0681 41.6984 23.9937 41.7761 23.9002C41.9447 23.6805 42.0299 23.4066 42.016 23.1286C42.034 22.8611 41.9566 22.5959 41.7979 22.3814C41.7196 22.2906 41.6214 22.2195 41.5113 22.1738C41.4011 22.1282 41.2819 22.1092 41.1633 22.1183V22.1117Z" fill="#B2B2B2"/>
<path d="M43.2679 24.4086V21.8906H43.595V22.2842C43.6859 22.1337 43.8136 22.0095 43.9657 21.9238C44.1213 21.84 44.2955 21.7981 44.4717 21.8022C44.5915 21.7906 44.7123 21.806 44.8256 21.8472C44.9388 21.8884 45.0417 21.9544 45.1269 22.0406C45.2121 22.1267 45.2775 22.2309 45.3184 22.3456C45.3594 22.4603 45.3748 22.5827 45.3637 22.7042V24.413H45.0147V22.8656C45.0296 22.6658 44.9748 22.4671 44.8599 22.3041C44.7976 22.2398 44.7222 22.1902 44.6389 22.1588C44.5556 22.1275 44.4665 22.1152 44.3779 22.1228C44.2697 22.1136 44.1609 22.1302 44.0602 22.1713C43.9594 22.2123 43.8696 22.2767 43.7978 22.3593C43.6566 22.5801 43.5914 22.8421 43.6124 23.1043V24.4175L43.2679 24.4086Z" fill="#B2B2B2"/>
<path d="M46.7027 23.6879L47.1083 23.8603L46.369 25.3216L46.1335 25.211L46.7027 23.6879Z" fill="#B2B2B2"/>
<path d="M49.6076 24.4085V20.2547H51.638V20.6084H49.9805V21.9083H51.638V22.2642H49.9805V24.0526H51.638V24.4063L49.6076 24.4085Z" fill="#B2B2B2"/>
<path d="M52.1265 21.8906H52.506L53.2671 23.7984L54.0261 21.8906H54.4099L53.2671 24.57L52.1265 21.8906Z" fill="#B2B2B2"/>
<path d="M56.0739 24.5191C55.8991 24.5196 55.7261 24.4835 55.5658 24.413C55.4028 24.3399 55.2549 24.2364 55.1296 24.108C55.0052 23.9822 54.908 23.8316 54.8439 23.6658C54.7779 23.5001 54.7446 23.3228 54.7458 23.1441C54.7457 22.9646 54.7798 22.7867 54.8461 22.6202C54.9124 22.4545 55.011 22.3041 55.1361 22.178C55.2606 22.0508 55.4089 21.9501 55.5723 21.8818C55.734 21.8136 55.9075 21.7791 56.0826 21.7801C56.262 21.779 56.4398 21.8136 56.606 21.8818C56.7691 21.9507 56.9173 22.0514 57.0422 22.178C57.1689 22.3037 57.269 22.4541 57.3366 22.6202C57.4057 22.7844 57.4406 22.9612 57.4391 23.1397C57.4401 23.3169 57.4061 23.4925 57.3391 23.6561C57.272 23.8198 57.1733 23.9682 57.0488 24.0925C56.9211 24.2232 56.7692 24.3269 56.6017 24.3976C56.4357 24.474 56.2561 24.5153 56.0739 24.5191ZM56.087 24.192C56.2164 24.1943 56.3449 24.169 56.4641 24.1175C56.5832 24.0661 56.6903 23.9898 56.7783 23.8935C56.9612 23.6936 57.0628 23.4311 57.0628 23.1585C57.0628 22.8859 56.9612 22.6233 56.7783 22.4234C56.6886 22.3291 56.581 22.254 56.4621 22.2028C56.3431 22.1515 56.2152 22.1251 56.0859 22.1251C55.9566 22.1251 55.8287 22.1515 55.7097 22.2028C55.5907 22.254 55.4832 22.3291 55.3935 22.4234C55.2111 22.6236 55.1098 22.886 55.1098 23.1585C55.1098 23.4309 55.2111 23.6934 55.3935 23.8935C55.4818 23.9901 55.5892 24.0666 55.7087 24.118C55.8282 24.1694 55.9572 24.1946 56.087 24.192Z" fill="#B2B2B2"/>
<path d="M58.5252 24.4086H58.1697V20.0093H58.5252V24.4086Z" fill="#B2B2B2"/>
<path d="M59.0922 21.8906H59.4695L60.2328 23.7984L60.9917 21.8906H61.3734L60.2328 24.57L59.0922 21.8906Z" fill="#B2B2B2"/>
<path d="M61.8467 20.9091C61.8461 20.8739 61.8528 20.8391 61.8663 20.8067C61.8798 20.7743 61.8999 20.7452 61.9252 20.7212C61.9757 20.6713 62.0433 20.6435 62.1138 20.6435C62.1843 20.6435 62.252 20.6713 62.3025 20.7212C62.328 20.7451 62.3484 20.7742 62.3623 20.8065C62.3762 20.8389 62.3833 20.8738 62.3831 20.9091C62.3842 20.9446 62.3777 20.9799 62.3641 21.0127C62.3506 21.0455 62.3303 21.075 62.3046 21.0992C62.2794 21.1245 62.2494 21.1444 62.2165 21.1577C62.1835 21.171 62.1482 21.1774 62.1127 21.1766C62.0779 21.1772 62.0434 21.1707 62.0111 21.1574C61.9789 21.1441 61.9496 21.1243 61.9252 21.0992C61.8995 21.075 61.8792 21.0455 61.8657 21.0127C61.8521 20.9799 61.8457 20.9446 61.8467 20.9091ZM61.9339 24.4086V21.8906H62.2894V24.4086H61.9339Z" fill="#B2B2B2"/>
<path d="M63.2294 24.4087V21.8907H63.5587V22.2842C63.6496 22.1337 63.7773 22.0096 63.9294 21.9239C64.0843 21.8403 64.2578 21.7984 64.4332 21.8023C64.5532 21.7903 64.6743 21.8054 64.7878 21.8465C64.9013 21.8875 65.0045 21.9535 65.09 22.0397C65.1754 22.1259 65.241 22.2301 65.282 22.345C65.3231 22.4599 65.3386 22.5826 65.3274 22.7042V24.4131H64.9784V22.8656C64.9938 22.6655 64.9381 22.4663 64.8214 22.3041C64.7596 22.2399 64.6845 22.1903 64.6016 22.159C64.5186 22.1276 64.4299 22.1153 64.3416 22.1228C64.2334 22.1133 64.1245 22.1297 64.0237 22.1708C63.9229 22.2119 63.8331 22.2765 63.7615 22.3594C63.6194 22.5798 63.5534 22.8418 63.574 23.1044V24.4175L63.2294 24.4087Z" fill="#B2B2B2"/>
<path d="M68.4002 21.8906V23.9709C68.4002 24.3025 68.4002 24.5545 68.374 24.7292C68.3654 24.8627 68.336 24.994 68.2868 25.1182C68.2065 25.2993 68.0671 25.4469 67.8921 25.5361C67.6822 25.6358 67.452 25.6836 67.2203 25.6753C66.9495 25.6908 66.6804 25.623 66.4483 25.4808C66.355 25.4116 66.277 25.3233 66.2195 25.2216C66.1621 25.1199 66.1263 25.0071 66.1146 24.8905H66.5508C66.5609 24.9613 66.5855 25.0292 66.623 25.0898C66.6606 25.1503 66.7103 25.2022 66.7689 25.242C66.9148 25.3283 67.0822 25.3697 67.2509 25.3614C67.3932 25.3642 67.5344 25.3364 67.6652 25.2796C67.757 25.2417 67.8381 25.1815 67.9016 25.1045C67.9651 25.0274 68.009 24.9357 68.0294 24.8375C68.0502 24.7119 68.0589 24.5845 68.0556 24.4572V23.9466C67.9837 24.1202 67.8612 24.2675 67.7045 24.3688C67.5418 24.4718 67.3532 24.5248 67.1615 24.5213C67.0038 24.5274 66.8468 24.4974 66.7022 24.4335C66.5576 24.3696 66.4291 24.2734 66.3262 24.1522C66.1188 23.8631 66.007 23.5148 66.007 23.1574C66.007 22.7999 66.1188 22.4516 66.3262 22.1626C66.4305 22.0399 66.5608 21.9426 66.7072 21.8779C66.8537 21.8133 67.0127 21.7829 67.1724 21.789C67.3615 21.7868 67.5472 21.8406 67.7067 21.9437C67.8602 22.0414 67.9799 22.1851 68.0491 22.3549V21.8818L68.4002 21.8906ZM67.2138 22.1117C67.0977 22.1066 66.9821 22.1294 66.8764 22.1781C66.7706 22.2269 66.6778 22.3004 66.6053 22.3925C66.4635 22.6205 66.3883 22.8845 66.3883 23.154C66.3883 23.4236 66.4635 23.6876 66.6053 23.9156C66.6747 24.0049 66.7642 24.076 66.8662 24.1229C66.9683 24.1699 67.08 24.1913 67.192 24.1853C67.3125 24.1896 67.4324 24.1662 67.5427 24.1168C67.653 24.0674 67.7508 23.9934 67.8288 23.9002C67.9967 23.6802 68.081 23.4064 68.0665 23.1286C68.0836 22.8612 68.0063 22.5964 67.8484 22.3814C67.771 22.2924 67.6746 22.2224 67.5666 22.1768C67.4585 22.1312 67.3416 22.1112 67.2247 22.1183L67.2138 22.1117Z" fill="#B2B2B2"/>
<path d="M71.0216 24.4085V20.2547H73.0499V20.6084H71.3946V21.9083H73.0499V22.2642H71.3946V24.0526H73.0499V24.4063L71.0216 24.4085Z" fill="#B2B2B2"/>
<path d="M73.5492 21.8906H73.9265L74.6898 23.7984L75.4466 21.8906H75.8304L74.6898 24.57L73.5492 21.8906Z" fill="#B2B2B2"/>
<path d="M78.4933 23.1684H76.5305C76.5235 23.4441 76.608 23.7142 76.7704 23.9355C76.8439 24.0262 76.937 24.0986 77.0425 24.1469C77.148 24.1952 77.2631 24.2182 77.3789 24.214C77.5512 24.2168 77.7199 24.1641 77.8609 24.0637C78.0083 23.9439 78.1232 23.7879 78.1945 23.6105L78.5107 23.7874C78.4063 24.0133 78.2454 24.2076 78.044 24.3511C77.8405 24.4759 77.6057 24.5381 77.368 24.5301C77.2051 24.5348 77.043 24.5043 76.8926 24.4407C76.7422 24.377 76.6069 24.2817 76.4956 24.161C76.2633 23.8931 76.1422 23.5446 76.1576 23.1883C76.1404 22.8241 76.2605 22.4669 76.4934 22.189C76.6022 22.0643 76.7367 21.9655 76.8876 21.8998C77.0384 21.8341 77.2017 21.803 77.3658 21.8088C77.5202 21.8025 77.6741 21.8307 77.8166 21.8915C77.9591 21.9522 78.0866 22.044 78.1902 22.1603C78.4076 22.4205 78.5191 22.7549 78.502 23.0954L78.4933 23.1684ZM78.0833 22.8699C78.0843 22.7695 78.0645 22.6699 78.0253 22.5777C77.9861 22.4854 77.9283 22.4025 77.8556 22.3342C77.7829 22.2659 77.6969 22.2138 77.6032 22.1812C77.5094 22.1486 77.41 22.1362 77.3113 22.1448C77.1172 22.139 76.9285 22.2105 76.7857 22.3438C76.6424 22.4822 76.5553 22.6698 76.5414 22.8699H78.0833Z" fill="#B2B2B2"/>
<path d="M79.5532 22.3969C79.6481 22.2201 79.7754 22.0632 79.9283 21.9348C80.0547 21.8413 80.2081 21.7931 80.3645 21.7978C80.4136 21.7976 80.4626 21.8028 80.5106 21.8133C80.5604 21.8221 80.6093 21.8354 80.6567 21.8531L80.5455 22.1802C80.5075 22.1691 80.4689 22.1602 80.4299 22.1537C80.3912 22.145 80.3518 22.1406 80.3122 22.1404C80.2068 22.1429 80.1036 22.1711 80.0114 22.2227C79.9191 22.2743 79.8405 22.3477 79.7822 22.4367C79.6315 22.6501 79.5548 22.9083 79.5641 23.1706V24.4086H79.2195V21.8906H79.5641L79.5532 22.3969Z" fill="#B2B2B2"/>
<path d="M80.6764 21.8906H81.0427L81.7537 23.8603L82.408 21.8906H82.7744L81.4898 25.6753H81.1344L81.5705 24.3909L80.6764 21.8906Z" fill="#B2B2B2"/>
<path d="M85.0272 24.4086V20.2548H85.6662C86.0714 20.2421 86.4768 20.2702 86.8765 20.3388C87.1014 20.3888 87.3123 20.4893 87.4937 20.6328C87.7237 20.8201 87.903 21.0635 88.015 21.3402C88.2533 21.9814 88.2533 22.6886 88.015 23.3298C87.9199 23.5742 87.7683 23.7917 87.5728 23.9641C87.3773 24.1365 87.1437 24.2586 86.8918 24.3202C86.5327 24.3909 86.167 24.4205 85.8014 24.4086H85.0381H85.0272ZM85.4001 24.0814H85.9235C86.2254 24.092 86.5275 24.0683 86.8242 24.0107C86.992 23.9669 87.1468 23.8827 87.2756 23.7653C87.4507 23.5966 87.5837 23.3883 87.6638 23.1574C87.8397 22.6153 87.8397 22.0304 87.6638 21.4883C87.5849 21.2595 87.4498 21.0549 87.2713 20.8937C87.1344 20.7714 86.9706 20.6842 86.7937 20.6394C86.4672 20.5791 86.1352 20.5546 85.8036 20.5665H85.4023L85.4001 24.0814Z" fill="#B2B2B2"/>
<path d="M90.8042 24.4086V23.9488C90.7336 24.1219 90.6136 24.2697 90.4597 24.3733C90.3023 24.4729 90.1196 24.5237 89.9341 24.5192C89.7705 24.5276 89.6071 24.4987 89.4561 24.4344C89.3051 24.3701 89.1703 24.2721 89.0617 24.1478C88.8361 23.8733 88.7202 23.5231 88.7368 23.1662C88.7216 22.809 88.8356 22.4584 89.0574 22.1803C89.1603 22.0548 89.2904 21.955 89.4375 21.8887C89.5846 21.8224 89.7448 21.7913 89.9057 21.7978C90.0976 21.7928 90.2871 21.8418 90.4531 21.9393C90.6103 22.0363 90.7343 22.1798 90.8086 22.3505V21.8907H91.1532V24.4086H90.8042ZM89.1315 23.1684C89.1148 23.4372 89.192 23.7033 89.3496 23.9201C89.4259 24.0093 89.5215 24.0794 89.6289 24.1251C89.7364 24.1707 89.8527 24.1906 89.969 24.1831C90.0873 24.1884 90.2051 24.165 90.3128 24.1151C90.4205 24.0651 90.5149 23.9899 90.5883 23.8957C90.747 23.6636 90.8238 23.384 90.8064 23.1021C90.8232 22.8409 90.7457 22.5824 90.5883 22.3748C90.5126 22.2865 90.4181 22.2167 90.312 22.1708C90.2058 22.1249 90.0908 22.1039 89.9755 22.1095C89.8583 22.1047 89.7416 22.1277 89.6348 22.1769C89.528 22.226 89.4341 22.2999 89.3605 22.3925C89.1966 22.6158 89.1156 22.8906 89.1315 23.1684Z" fill="#B2B2B2"/>
<path d="M91.7333 21.8906H92.1019L92.8128 23.8603L93.4671 21.8906H93.8313L92.5468 25.6753H92.1913L92.6275 24.3909L91.7333 21.8906Z" fill="#B2B2B2"/>
<path d="M93.9643 24.1699C93.9636 24.1317 93.9706 24.0937 93.9849 24.0584C93.9991 24.023 94.0203 23.991 94.0472 23.9643C94.1018 23.9104 94.175 23.8802 94.2511 23.8802C94.3273 23.8802 94.4005 23.9104 94.455 23.9643C94.4887 23.9981 94.5136 24.0399 94.5275 24.0859C94.5414 24.1319 94.5438 24.1807 94.5346 24.2279C94.5254 24.275 94.5049 24.3192 94.4748 24.3564C94.4447 24.3936 94.406 24.4227 94.3622 24.441C94.3183 24.4594 94.2707 24.4665 94.2235 24.4617C94.1763 24.4569 94.131 24.4403 94.0916 24.4135C94.0522 24.3867 94.02 24.3504 93.9978 24.3079C93.9756 24.2654 93.9641 24.218 93.9643 24.1699Z" fill="#B2B2B2"/>
</svg>
