<svg width="80" height="81" viewBox="0 0 80 81" fill="none" xmlns="http://www.w3.org/2000/svg">
<path d="M70.7488 11.3187L36.4125 5.58124C35.739 5.46929 35.0492 5.50531 34.391 5.68678C33.7328 5.86825 33.122 6.19082 32.6011 6.6321C32.0801 7.07338 31.6614 7.62279 31.3742 8.24215C31.0869 8.86152 30.9379 9.53599 30.9375 10.2187V37.2312C30.9349 38.4776 31.4271 39.674 32.306 40.5576C33.1849 41.4412 34.3787 41.9398 35.625 41.9437H55.775L63.5625 50.7687C63.7359 50.9539 63.9595 51.0844 64.2059 51.1443C64.4524 51.2043 64.711 51.191 64.95 51.1062C65.1871 51.0151 65.3908 50.8538 65.5337 50.6438C65.6767 50.4339 65.7521 50.1852 65.75 49.9312V41.9437H69.9738C71.2201 41.9398 72.4138 41.4412 73.2928 40.5576C74.1717 39.674 74.6639 38.4776 74.6613 37.2312V15.9562C74.665 14.8448 74.2735 13.7683 73.5568 12.9188C72.8402 12.0693 71.8449 11.5022 70.7488 11.3187ZM42.9363 27.0312C42.4357 27.0311 41.9556 26.8321 41.6018 26.478C41.2479 26.1239 41.0492 25.6437 41.0494 25.1431C41.0496 24.6425 41.2486 24.1625 41.6027 23.8086C41.9568 23.4548 42.4369 23.2561 42.9375 23.2562C43.4381 23.2562 43.9182 23.4551 44.2722 23.8091C44.6262 24.163 44.825 24.6431 44.825 25.1437C44.825 25.6443 44.6262 26.1244 44.2722 26.4784C43.9182 26.8324 43.4369 27.0312 42.9363 27.0312ZM52.7988 27.0312C52.2982 27.0312 51.8181 26.8324 51.4641 26.4784C51.1101 26.1244 50.9113 25.6443 50.9113 25.1437C50.9113 24.6431 51.1101 24.163 51.4641 23.8091C51.8181 23.4551 52.2982 23.2562 52.7988 23.2562C53.2994 23.2562 53.7794 23.4551 54.1334 23.8091C54.4874 24.163 54.6863 24.6431 54.6863 25.1437C54.6863 25.6443 54.4874 26.1244 54.1334 26.4784C53.7794 26.8324 53.2994 27.0312 52.7988 27.0312ZM62.6613 27.0312C62.1607 27.0312 61.6806 26.8324 61.3266 26.4784C60.9726 26.1244 60.7738 25.6443 60.7738 25.1437C60.7738 24.6431 60.9726 24.163 61.3266 23.8091C61.6806 23.4551 62.1607 23.2562 62.6613 23.2562C63.1619 23.2562 63.6419 23.4551 63.9959 23.8091C64.3499 24.163 64.5488 24.6431 64.5488 25.1437C64.5488 25.6443 64.3499 26.1244 63.9959 26.4784C63.6419 26.8324 63.1619 27.0312 62.6613 27.0312Z" fill="#29E68C"/>
<path d="M28.4375 37.2313V32.2688L9.23876 35.6438C8.14965 35.8401 7.16353 36.4113 6.45126 37.2582C5.73898 38.1052 5.34542 39.1747 5.33876 40.2813V61.555C5.3361 62.8014 5.82831 63.9978 6.70724 64.8814C7.58618 65.765 8.77994 66.2636 10.0263 66.2675H14.2513V74.2551C14.2549 74.5073 14.3343 74.7526 14.4793 74.959C14.6243 75.1654 14.828 75.3234 15.0641 75.4125C15.3001 75.5015 15.5574 75.5174 15.8026 75.4581C16.0478 75.3988 16.2695 75.2671 16.4388 75.08L24.2263 66.2675H44.375C45.6213 66.2636 46.8151 65.765 47.694 64.8814C48.5729 63.9978 49.0652 62.8014 49.0625 61.555V44.4425H35.625C33.7163 44.4366 31.8878 43.674 30.5404 42.322C29.1931 40.9699 28.4368 39.14 28.4375 37.2313ZM17.3375 51.3563C16.8353 51.3563 16.3536 51.1568 15.9984 50.8016C15.6433 50.4465 15.4438 49.9648 15.4438 49.4625C15.4438 48.9603 15.6433 48.4786 15.9984 48.1235C16.3536 47.7683 16.8353 47.5688 17.3375 47.5688C17.8398 47.5688 18.3214 47.7683 18.6766 48.1235C19.0317 48.4786 19.2313 48.9603 19.2313 49.4625C19.2313 49.9648 19.0317 50.4465 18.6766 50.8016C18.3214 51.1568 17.8398 51.3563 17.3375 51.3563ZM27.2 51.3563C26.6978 51.3563 26.2161 51.1568 25.8609 50.8016C25.5058 50.4465 25.3063 49.9648 25.3063 49.4625C25.3063 48.9603 25.5058 48.4786 25.8609 48.1235C26.2161 47.7683 26.6978 47.5688 27.2 47.5688C27.7023 47.5688 28.1839 47.7683 28.5391 48.1235C28.8942 48.4786 29.0938 48.9603 29.0938 49.4625C29.0938 49.9648 28.8942 50.4465 28.5391 50.8016C28.1839 51.1568 27.7023 51.3563 27.2 51.3563ZM37.0625 47.5688C37.5648 47.5688 38.0464 47.7683 38.4016 48.1235C38.7567 48.4786 38.9563 48.9603 38.9563 49.4625C38.9563 49.9648 38.7567 50.4465 38.4016 50.8016C38.0464 51.1568 37.5648 51.3563 37.0625 51.3563C36.5603 51.3563 36.0786 51.1568 35.7234 50.8016C35.3683 50.4465 35.1688 49.9648 35.1688 49.4625C35.1688 48.9603 35.3683 48.4786 35.7234 48.1235C36.0786 47.7683 36.5603 47.5688 37.0625 47.5688Z" fill="white"/>
</svg>
