<svg width="65" height="63" viewBox="0 0 65 63" fill="none" xmlns="http://www.w3.org/2000/svg">
<path fill-rule="evenodd" clip-rule="evenodd" d="M32.5793 14.3257C42.216 14.3257 50.0262 22.014 50.0262 31.5C50.0262 40.9861 42.216 48.6743 32.5793 48.6743C22.9427 48.6743 15.1324 40.9861 15.1324 31.5C15.1324 22.014 22.9427 14.3257 32.5793 14.3257ZM43.5326 42.2114C46.3053 39.4641 48.0184 35.6793 48.0184 31.5C48.0184 23.1056 41.107 16.3022 32.5793 16.3022C24.0516 16.3022 17.1403 23.1056 17.1403 31.5C17.1403 35.6793 18.8533 39.4641 21.626 42.2114C23.0889 37.6254 27.4405 34.2979 32.5793 34.2979C37.7182 34.2979 42.0698 37.6254 43.5326 42.2114ZM32.5793 33.0626C29.3845 33.0626 26.7724 30.4913 26.7724 27.3464C26.7724 24.2014 29.3845 21.6302 32.5793 21.6302C35.7742 21.6302 38.3863 24.2014 38.3863 27.3464C38.3863 30.4913 35.7742 33.0626 32.5793 33.0626ZM61.676 32.4883H55.9108L56.7137 33.4261C56.8852 33.6266 56.9688 33.8859 56.9461 34.147C56.9234 34.4081 56.7964 34.6497 56.5929 34.8187C56.3893 34.9874 56.1259 35.0697 55.8606 35.0474C55.5954 35.0252 55.35 34.9001 55.1784 34.6998L52.9843 32.1368C52.8317 31.9587 52.748 31.7331 52.748 31.5C52.748 31.267 52.8317 31.0414 52.9843 30.8633L55.1784 28.3003C55.35 28.1 55.5954 27.9749 55.8606 27.9526C56.1259 27.9304 56.3893 28.0126 56.5929 28.1814C56.7964 28.3504 56.9234 28.592 56.9461 28.8531C56.9688 29.1142 56.8852 29.3735 56.7137 29.574L55.9108 30.5118H62.697C63.251 30.5118 63.7009 30.9547 63.7009 31.5C63.7009 46.3808 52.8991 58.7973 38.5997 61.5613C38.3385 61.6117 38.0676 61.5579 37.8466 61.4118C37.6257 61.2657 37.4727 61.0392 37.4212 60.7821C37.3701 60.5249 37.4247 60.2583 37.5731 60.0407C37.7215 59.8232 37.9516 59.6725 38.2128 59.6219C51.2715 57.0978 61.2111 45.9673 61.676 32.4883ZM31.5754 8.53308V1.85298C31.5754 1.3076 32.0253 0.864746 32.5793 0.864746C47.6963 0.864746 60.3099 11.4978 63.1177 25.5737C63.1689 25.8309 63.1143 26.0975 62.9659 26.315C62.8174 26.5326 62.5873 26.6832 62.3262 26.7338C62.0649 26.7842 61.794 26.7304 61.573 26.5843C61.352 26.4382 61.199 26.2117 61.1476 25.9546C58.5834 13.1 47.2762 3.31569 33.5833 2.85802V8.53308L34.536 7.74274C34.7396 7.57397 35.0031 7.4917 35.2683 7.51401C35.5336 7.53631 35.779 7.66137 35.9506 7.8617C36.1221 8.06215 36.2057 8.32141 36.183 8.58251C36.1604 8.8436 36.0334 9.08517 35.8299 9.25412L33.2262 11.4139C33.0452 11.5641 32.8161 11.6465 32.5793 11.6465C32.3426 11.6465 32.1134 11.5641 31.9324 11.4139L29.3288 9.25412C29.1253 9.08517 28.9983 8.8436 28.9756 8.58251C28.953 8.32141 29.0366 8.06215 29.208 7.8617C29.3797 7.66137 29.6251 7.53631 29.8904 7.51401C30.1556 7.4917 30.419 7.57397 30.6227 7.74274L31.5754 8.53308ZM3.48267 30.5118H9.24782L8.44493 29.574C8.27348 29.3735 8.18991 29.1142 8.21257 28.8531C8.23523 28.592 8.36227 28.3504 8.56578 28.1814C8.76941 28.0126 9.03279 27.9304 9.29803 27.9526C9.56327 27.9749 9.80867 28.1 9.9803 28.3003L12.1744 30.8633C12.327 31.0414 12.4107 31.267 12.4107 31.5C12.4107 31.7331 12.327 31.9587 12.1744 32.1368L9.9803 34.6998C9.80867 34.9001 9.56327 35.0252 9.29803 35.0474C9.03279 35.0697 8.76941 34.9874 8.56578 34.8187C8.36227 34.6497 8.23523 34.4081 8.21257 34.147C8.18991 33.8859 8.27348 33.6266 8.44493 33.4261L9.24782 32.4883H2.46169C1.90765 32.4883 1.45776 32.0454 1.45776 31.5C1.45776 16.6193 12.2596 4.20276 26.5589 1.43879C26.8202 1.38841 27.091 1.44218 27.312 1.58829C27.533 1.73441 27.686 1.9609 27.7374 2.21801C27.7886 2.4752 27.734 2.74186 27.5855 2.95941C27.437 3.17696 27.2069 3.32759 26.9457 3.3782C13.8872 5.90228 3.94761 17.0328 3.48267 30.5118ZM31.5754 60.1421V54.467L30.6227 55.2574C30.419 55.4261 30.1556 55.5084 29.8904 55.4861C29.6251 55.4638 29.3797 55.3387 29.208 55.1384C29.0366 54.9379 28.953 54.6787 28.9756 54.4176C28.9983 54.1565 29.1253 53.9149 29.3288 53.746L31.9324 51.5862C32.1134 51.4359 32.3426 51.3535 32.5793 51.3535C32.8161 51.3535 33.0452 51.4359 33.2262 51.5862L35.8299 53.746C36.0334 53.9149 36.1604 54.1565 36.183 54.4176C36.2057 54.6787 36.1221 54.9379 35.9506 55.1384C35.779 55.3387 35.5336 55.4638 35.2683 55.4861C35.0031 55.5084 34.7396 55.4261 34.536 55.2574L33.5833 54.467V61.1471C33.5833 61.6925 33.1334 62.1353 32.5793 62.1353C17.4624 62.1353 4.84876 51.5023 2.04092 37.4264C1.98974 37.1692 2.04436 36.9026 2.1928 36.6851C2.34123 36.4675 2.57132 36.3169 2.83251 36.2663C3.09376 36.2159 3.36464 36.2697 3.58564 36.4158C3.80664 36.5619 3.95967 36.7884 4.01111 37.0455C6.57525 49.9001 17.8824 59.6844 31.5754 60.1421Z" fill="#29E68C"/>
</svg>
