<svg width="64" height="64" viewBox="0 0 64 64" fill="none" xmlns="http://www.w3.org/2000/svg">
<path d="M26.0128 10.4844L24.9058 12.8799L22.8563 13.7285L20.3803 12.816C20.2906 12.783 20.1933 12.7764 20.1 12.7969C20.0066 12.8174 19.9211 12.8643 19.8535 12.9319L17.5222 15.267C17.4548 15.3346 17.4081 15.42 17.3877 15.5132C17.3672 15.6064 17.3739 15.7036 17.4069 15.7931L18.3194 18.269L17.4709 20.3184L15.072 21.4256C14.9853 21.4656 14.9119 21.5297 14.8604 21.6101C14.8089 21.6906 14.7815 21.7841 14.7815 21.8796V25.1768C14.7815 25.2723 14.8089 25.3658 14.8604 25.4462C14.9119 25.5267 14.9853 25.5907 15.072 25.6308L17.4709 26.738L18.3194 28.7874L17.4069 31.2633C17.3739 31.3528 17.3672 31.4499 17.3876 31.5432C17.4081 31.6364 17.4547 31.7218 17.5222 31.7894L19.8535 34.1245C19.9211 34.1921 20.0066 34.2389 20.1 34.2595C20.1933 34.28 20.2906 34.2734 20.3803 34.2404L22.8563 33.3279L24.9058 34.1765L26.0128 36.572C26.0528 36.6587 26.1169 36.7321 26.1973 36.7835C26.2777 36.8349 26.3712 36.8623 26.4667 36.8623H29.7675C29.9625 36.8623 30.1397 36.749 30.2214 36.572L31.3287 34.1764L33.3747 33.3279L35.854 34.2405C35.9437 34.2734 36.041 34.28 36.1343 34.2594C36.2276 34.2389 36.3131 34.1921 36.3807 34.1245L38.712 31.7894C38.7795 31.7219 38.8262 31.6364 38.8467 31.5432C38.8671 31.4499 38.8604 31.3528 38.8274 31.2633L37.9148 28.7873L38.7633 26.738L41.1623 25.6308C41.249 25.5907 41.3224 25.5267 41.3739 25.4462C41.4253 25.3658 41.4527 25.2723 41.4527 25.1768V21.8796C41.4527 21.6846 41.3393 21.5074 41.1623 21.4256L38.7633 20.3184L37.9148 18.2691L38.8274 15.7931C38.8605 15.7036 38.8671 15.6064 38.8467 15.5132C38.8263 15.4199 38.7795 15.3345 38.712 15.267L36.3807 12.9319C36.3131 12.8643 36.2276 12.8174 36.1343 12.7969C36.041 12.7763 35.9437 12.7829 35.854 12.8159L33.3747 13.7285L31.3287 12.88L30.2214 10.4844C30.1814 10.3977 30.1174 10.3243 30.0369 10.2729C29.9565 10.2214 29.863 10.1941 29.7675 10.1941H26.4667C26.2717 10.1941 26.0945 10.3074 26.0128 10.4844ZM34.335 23.5263C34.335 26.9549 31.5458 29.7441 28.1172 29.7441C24.6885 29.7441 21.8993 26.9549 21.8993 23.5263C21.8993 20.0976 24.6885 17.312 28.1172 17.312C31.5458 17.312 34.335 20.0998 34.335 23.5263ZM23.8993 23.5263C23.8993 21.2025 25.7914 19.312 28.1172 19.312C30.4429 19.312 32.335 21.2025 32.335 23.5263C32.335 25.85 30.4429 27.7441 28.1172 27.7441C25.7914 27.7441 23.8993 25.852 23.8993 23.5263ZM32.007 10.6941C32.007 10.4289 32.1124 10.1746 32.2999 9.98702C32.4875 9.79948 32.7418 9.69413 33.007 9.69413H40.9303L43.2818 5.61987C42.973 5.20312 42.788 4.6895 42.788 4.13212C42.788 2.74962 43.9128 1.625 45.2953 1.625C46.6778 1.625 47.8024 2.74975 47.8024 4.13212C47.8024 5.5145 46.6778 6.63938 45.2953 6.63938C45.1995 6.63938 45.1054 6.63287 45.0125 6.62238L42.374 11.1941C42.2863 11.3462 42.16 11.4725 42.008 11.5602C41.856 11.648 41.6835 11.6943 41.5079 11.6943H33.0072C32.742 11.6943 32.4876 11.5889 32.3001 11.4014C32.1125 11.2138 32.0072 10.9595 32.0072 10.6943L32.007 10.6941ZM55.8922 23.5263C55.8922 24.9088 54.7674 26.0334 53.3849 26.0334C52.3594 26.0334 51.477 25.4121 51.0905 24.5263H43.6952C43.43 24.5263 43.1756 24.4209 42.9881 24.2334C42.8005 24.0458 42.6952 23.7915 42.6952 23.5263C42.6952 23.261 42.8005 23.0067 42.9881 22.8191C43.1756 22.6316 43.43 22.5263 43.6952 22.5263H51.0913C51.4782 21.6424 52.36 21.0228 53.385 21.0228C54.7675 21.0228 55.8922 22.1459 55.8922 23.5263ZM47.4402 12.1716C47.4402 10.7891 48.5648 9.66438 49.9473 9.66438C51.3298 9.66438 52.4545 10.7891 52.4545 12.1716C52.4545 13.5541 51.3298 14.6788 49.9473 14.6788C49.8528 14.6784 49.7583 14.6726 49.6644 14.6616L47.0908 19.1182C47.003 19.2703 46.8768 19.3965 46.7248 19.4843C46.5728 19.572 46.4003 19.6182 46.2248 19.6182H40.9203C40.6551 19.6182 40.4007 19.5129 40.2132 19.3254C40.0257 19.1378 39.9203 18.8835 39.9203 18.6182C39.9203 18.353 40.0257 18.0987 40.2132 17.9111C40.4007 17.7236 40.6551 17.6182 40.9203 17.6182H45.6474L47.9337 13.6591C47.625 13.2424 47.44 12.7288 47.44 12.1715L47.4402 12.1716ZM47.8022 42.9241C47.8022 44.3066 46.6775 45.4313 45.295 45.4313C43.9125 45.4313 42.7878 44.3065 42.7878 42.9241C42.7878 42.3669 42.9728 41.8531 43.2815 41.4364L40.93 37.362H33.0068C32.7416 37.362 32.4872 37.2566 32.2997 37.0691C32.1122 36.8816 32.0068 36.6272 32.0068 36.362C32.0068 36.0968 32.1122 35.8424 32.2997 35.6549C32.4872 35.4674 32.7416 35.362 33.0068 35.362H41.5075C41.6831 35.362 41.8556 35.4082 42.0076 35.496C42.1597 35.5838 42.2859 35.7101 42.3737 35.8621L45.0122 40.434C45.106 40.423 45.2004 40.4173 45.2949 40.4169C46.6774 40.4169 47.802 41.5416 47.802 42.924L47.8022 42.9241ZM52.4544 34.8846C52.4544 36.2671 51.3297 37.3919 49.9472 37.3919C48.5647 37.3919 47.44 36.2671 47.44 34.8846C47.44 34.3274 47.625 33.8138 47.9337 33.397L45.6474 29.4379H40.9203C40.6551 29.4379 40.4007 29.3325 40.2132 29.145C40.0257 28.9574 39.9203 28.7031 39.9203 28.4379C39.9203 28.1727 40.0257 27.9183 40.2132 27.7308C40.4007 27.5432 40.6551 27.4379 40.9203 27.4379H46.2248C46.4003 27.4379 46.5728 27.4841 46.7248 27.5719C46.8768 27.6596 47.003 27.7859 47.0908 27.9379L49.6644 32.3945C49.7583 32.3835 49.8528 32.3778 49.9473 32.3774C51.3298 32.3774 52.4545 33.5021 52.4545 34.8845L52.4544 34.8846ZM38.9484 50.3348V52.3348H39.0355C39.3008 52.3348 39.5551 52.4401 39.7427 52.6276C39.9302 52.8152 40.0355 53.0695 40.0355 53.3348C40.0355 53.6 39.9302 53.8543 39.7427 54.0419C39.5551 54.2294 39.3008 54.3348 39.0355 54.3348H38.9484V55.9076C38.9484 57.1689 37.9239 58.195 36.6645 58.195H35.4204V59.2121C35.4204 60.9562 33.911 62.3751 32.0557 62.3751H24.1783C22.3229 62.3751 20.8135 60.9561 20.8135 59.2121V58.195H19.5694C18.3102 58.195 17.2857 57.1689 17.2857 55.9076V54.3348H17.1984C16.9332 54.3348 16.6789 54.2294 16.4913 54.0419C16.3038 53.8543 16.1984 53.6 16.1984 53.3348C16.1984 53.0695 16.3038 52.8152 16.4913 52.6276C16.6789 52.4401 16.9332 52.3348 17.1984 52.3348H17.2857V50.3348H17.1984C16.9332 50.3348 16.6789 50.2294 16.4913 50.0419C16.3038 49.8543 16.1984 49.6 16.1984 49.3348C16.1984 49.0695 16.3038 48.8152 16.4913 48.6276C16.6789 48.4401 16.9332 48.3348 17.1984 48.3348H17.2857V46.9385C17.2857 46.0182 17.8339 45.2254 18.6199 44.8641C17.8277 42.1479 16.3094 40.4454 14.563 38.4919C13.6798 37.5037 12.7663 36.4819 11.8775 35.2492C9.41117 31.8341 8.10742 27.7915 8.10742 23.5589C8.10742 12.5276 17.0837 3.553 28.1169 3.553C28.2495 3.553 28.3767 3.60568 28.4705 3.69945C28.5642 3.79321 28.6169 3.92039 28.6169 4.053V8.19425H26.4664C25.4953 8.19425 24.6045 8.76388 24.197 9.6455L23.418 11.3313L22.8137 11.5815L21.0715 10.9394C20.7949 10.8373 20.5023 10.7851 20.2074 10.7852C19.8786 10.7844 19.5529 10.8488 19.2492 10.9747C18.9455 11.1006 18.6698 11.2856 18.438 11.5189L16.1064 13.8541C15.4207 14.5413 15.1944 15.5737 15.5302 16.4849L16.1722 18.2269L15.9222 18.8305L14.2339 19.6098C13.3514 20.0169 12.7813 20.9079 12.7813 21.8797V25.1769C12.7813 26.1486 13.3515 27.0398 14.2337 27.4468L15.9222 28.2261L16.1722 28.8298L15.53 30.5718C15.1944 31.4827 15.4207 32.5154 16.1067 33.2025L18.4382 35.5378C18.6698 35.771 18.9455 35.956 19.2492 36.0819C19.5529 36.2078 19.8785 36.2722 20.2073 36.2713C20.5023 36.2714 20.7949 36.2192 21.0717 36.117L22.8137 35.475L23.418 35.7253L24.1972 37.4111C24.6047 38.2926 25.4954 38.8623 26.4664 38.8623H28.6169V44.6549H36.6644C37.9237 44.6549 38.9483 45.6794 38.9483 46.9386V48.3349H39.0354C39.3006 48.3349 39.555 48.4402 39.7425 48.6278C39.9301 48.8153 40.0354 49.0697 40.0354 49.3349C40.0354 49.6001 39.9301 49.8544 39.7425 50.042C39.555 50.2295 39.3006 50.3349 39.0354 50.3349H38.9483L38.9484 50.3348Z" fill="#29E68C"/>
</svg>
