<svg width="64" height="64" viewBox="0 0 64 64" fill="none" xmlns="http://www.w3.org/2000/svg">
<path d="M38.9469 12.7016H45.0324C42.1847 9.28838 38.268 6.77471 33.7776 5.75708L30.6447 24.5887L49.703 23.4673C49.3466 20.4915 48.3398 17.6306 46.7539 15.0876H38.9469V12.7016ZM23.1992 51.5995C27.1083 51.5327 30.9168 50.3488 34.1748 48.1875V42.5267H36.5609V46.3205C40.7638 42.5422 43.4266 37.083 43.4266 31.0011V30.9796L23.9567 32.1285L23.1992 51.5995ZM21.9036 29.1662L25.009 10.4981C24.2774 10.4204 23.5423 10.3813 22.8067 10.3812C15.3695 10.3812 8.85806 14.3539 5.23132 20.2736L21.9036 29.1662Z" fill="#29E68C"/>
<path d="M52.07 58.0358C53.3877 58.0358 54.456 56.9676 54.456 55.6498C54.456 54.332 53.3877 53.2638 52.07 53.2638C50.7522 53.2638 49.684 54.332 49.684 55.6498C49.684 56.9676 50.7522 58.0358 52.07 58.0358Z" fill="#29E68C"/>
<path d="M20.8156 51.5197L21.5636 32.2694L21.3846 32.2813L21.4896 31.6514L4.10276 22.377C2.84423 25.078 2.19075 28.0213 2.18799 31.0012C2.18799 41.6989 10.378 50.514 20.8156 51.5197Z" fill="#29E68C"/>
<path d="M59.2281 16.2807C60.5458 16.2807 61.6141 15.2124 61.6141 13.8947C61.6141 12.5769 60.5458 11.5087 59.2281 11.5087C57.9103 11.5087 56.842 12.5769 56.842 13.8947C56.842 15.2124 57.9103 16.2807 59.2281 16.2807Z" fill="#29E68C"/>
<path d="M38.9468 12.7016H54.4559V15.0876H38.9468V12.7016ZM59.2279 18.6666C56.5962 18.6666 54.4559 16.5264 54.4559 13.8946C54.4559 11.2628 56.5962 9.12256 59.2279 9.12256C61.8597 9.12256 64 11.2628 64 13.8946C64 16.5264 61.8597 18.6666 59.2279 18.6666ZM59.2279 11.5086C57.912 11.5086 56.8419 12.5787 56.8419 13.8946C56.8419 15.2105 57.912 16.2806 59.2279 16.2806C60.5438 16.2806 61.6139 15.2105 61.6139 13.8946C61.6139 12.5787 60.5438 11.5086 59.2279 11.5086ZM49.6839 56.8428H34.1748V42.5267H36.5608V54.4568H49.6839V56.8428Z" fill="#29E68C"/>
<path d="M52.07 60.4219C49.4382 60.4219 47.298 58.2816 47.298 55.6498C47.298 53.0181 49.4382 50.8778 52.07 50.8778C54.7018 50.8778 56.842 53.0181 56.842 55.6498C56.842 58.2816 54.7018 60.4219 52.07 60.4219ZM52.07 53.2638C50.7541 53.2638 49.684 54.3339 49.684 55.6498C49.684 56.9657 50.7541 58.0358 52.07 58.0358C53.3859 58.0358 54.456 56.9657 54.456 55.6498C54.456 54.3339 53.3859 53.2638 52.07 53.2638Z" fill="#29E68C"/>
</svg>
