<svg width="171" height="175" viewBox="0 0 171 175" fill="none" xmlns="http://www.w3.org/2000/svg">
<path d="M85.4183 174.998C74.1 175.068 62.8806 172.858 52.41 168.495C42.0284 164.124 32.628 157.661 24.7776 149.497C16.8376 141.395 10.5639 131.771 6.32137 121.185C2.07306 110.453 -0.0734663 98.9823 0.00191884 87.4161C-0.0525105 75.9858 2.12474 64.6578 6.40792 54.0864C10.7902 43.4346 17.1435 33.7343 25.1238 25.5107C32.8914 17.3233 42.2432 10.8552 52.5918 6.51287C63.0011 2.15726 74.1593 -0.0560006 85.4183 0.00159028C96.6251 -0.0679865 107.732 2.14616 118.08 6.51287C128.358 10.8875 137.645 17.353 145.366 25.5107C153.475 33.7639 159.941 43.5256 164.411 54.2622C168.778 64.7525 171.018 76.0279 170.999 87.4161C171.053 98.9696 168.843 110.419 164.498 121.097C155.796 142.472 139.142 159.503 118.149 168.495C107.78 172.873 96.6483 175.085 85.4183 174.998ZM85.4183 145.807C102.155 145.807 116.334 140.121 127.958 128.751C139.581 117.38 145.384 103.614 145.366 87.4512C145.366 71.3883 139.563 57.7302 127.958 46.4768C116.352 35.2234 102.172 29.5937 85.4183 29.5879C68.6818 29.5879 54.5049 35.2175 42.8876 46.4768C31.2702 57.736 25.4644 71.3825 25.4701 87.4161C25.4701 103.719 31.2759 117.527 42.8876 128.839C54.4992 140.151 68.6761 145.807 85.4183 145.807Z" fill="#29E68C"/>
</svg>
