<svg width="186" height="52" viewBox="0 0 186 52" fill="none" xmlns="http://www.w3.org/2000/svg">
<g clip-path="url(#clip0_1_221)">
<path d="M56.0289 39.598H52.5682V12.9077H68.285V16.1868H56.0293V24.9496H67.0839V28.1531H56.0293V39.598L56.0289 39.598ZM74.7921 16.7489C73.9671 17.5702 72.6717 17.6993 71.6984 17.0571C70.7251 16.4149 70.3451 15.1803 70.7911 14.1089C71.2371 13.0375 72.3845 12.4277 73.5315 12.6526C74.6785 12.8776 75.5053 13.8746 75.5061 15.0336C75.5172 15.6791 75.2576 16.3003 74.7893 16.7489H74.7921ZM74.7921 39.598H71.3315V21.3327H74.7921V39.598ZM82.3861 39.598H78.9255V21.3327H82.2334V24.3148H82.3832C82.7828 23.264 83.5501 22.3906 84.5453 21.854C85.4958 21.2492 86.5949 20.9138 87.724 20.8843C88.6103 20.8593 89.4925 21.0118 90.318 21.3327L89.0019 24.5361C88.4083 24.3403 87.7846 24.2516 87.1599 24.274C85.891 24.2804 84.6832 24.8151 83.8315 25.7476C82.866 26.73 82.3832 28.0162 82.3832 29.6062L82.3861 39.598ZM99.8009 40.1804C97.0179 40.1804 94.7559 39.2611 93.0148 37.4228C91.2737 35.5845 90.4022 33.2652 90.4002 30.4656C90.3491 27.9449 91.255 25.4972 92.9384 23.6074C94.5507 21.7263 96.9358 20.6705 99.4249 20.7355C102.157 20.7355 104.345 21.618 105.988 23.3827C107.631 25.1475 108.451 27.5083 108.449 30.4652L108.411 31.1001H93.8546C93.9544 32.9386 94.5752 34.3948 95.7171 35.4684C96.7848 36.5073 98.225 37.0835 99.7208 37.0701C102.202 37.0701 103.882 36.0262 104.759 33.9395L107.844 35.2063C107.219 36.6505 106.188 37.8859 104.874 38.765C103.493 39.7085 101.802 40.1803 99.8001 40.1803L99.8009 40.1804ZM104.766 28.2404C104.691 27.1959 104.209 26.2019 103.317 25.2583C102.426 24.3147 101.101 23.8527 99.3427 23.8721C98.1228 23.8509 96.9379 24.276 96.0142 25.0661C95.0466 25.9067 94.3694 27.0272 94.0782 28.2695L104.766 28.2404ZM120.953 40.1804C119.643 40.2061 118.348 39.9057 117.186 39.3068C116.166 38.7966 115.303 38.0242 114.686 37.0702H114.537V39.598H111.226V12.9077H114.686V21.3327L114.537 23.8663H114.686C115.303 22.9123 116.166 22.1399 117.186 21.6298C118.347 21.0238 119.642 20.7164 120.953 20.7357C123.334 20.7357 125.39 21.6676 127.122 23.5314C128.853 25.3953 129.718 27.7066 129.716 30.4654C129.714 33.2242 128.851 35.5355 127.122 37.3993C125.392 39.2631 123.336 40.1901 120.953 40.1804ZM120.388 37.0498C121.965 37.0622 123.471 36.4037 124.525 35.2413C125.678 34.0356 126.255 32.4388 126.255 30.4507C126.255 28.4626 125.678 26.8659 124.525 25.6601C123.459 24.5116 121.958 23.8567 120.383 23.8533C118.809 23.85 117.305 24.4987 116.234 25.6426C115.095 26.8347 114.525 28.4373 114.525 30.4506C114.525 32.4639 115.1 34.0715 116.252 35.2732C117.312 36.4313 118.823 37.0833 120.4 37.0643L120.388 37.0498ZM138.526 40.1804C136.567 40.1804 134.932 39.6212 133.62 38.503C132.308 37.3848 131.65 35.9063 131.646 34.0677C131.646 32.0797 132.423 30.5207 133.978 29.3907C135.533 28.2607 137.451 27.6958 139.73 27.6958C141.761 27.6958 143.426 28.0686 144.725 28.8141V28.2928C144.774 27.0651 144.263 25.8807 143.332 25.069C142.385 24.2601 141.165 23.833 139.916 23.8721C138.959 23.8603 138.017 24.1045 137.189 24.5798C136.414 25.0056 135.819 25.6942 135.515 26.5193L132.357 25.1768C132.784 24.0799 133.624 23.0625 134.881 22.1248C136.139 21.1871 137.79 20.7211 139.846 20.727C142.196 20.727 144.155 21.4065 145.722 22.7655C147.288 24.1244 148.066 26.0504 148.054 28.5433V39.598H144.734V37.0644H144.585C143.204 39.1417 141.186 40.1765 138.53 40.1765L138.526 40.1804ZM139.09 37.0498C140.544 37.0447 141.94 36.4822 142.985 35.4801C144.099 34.5491 144.744 33.1795 144.748 31.735C143.769 30.939 142.3 30.5409 140.341 30.5409C138.661 30.5409 137.395 30.9011 136.543 31.6213C135.748 32.2272 135.277 33.1609 135.265 34.155C135.249 35.02 135.696 35.8292 136.441 36.2809C137.223 36.8024 138.147 37.0757 139.09 37.0643V37.0497L139.09 37.0498ZM158.229 40.1804C156.173 40.1804 154.475 39.6834 153.135 38.6893C151.832 37.7351 150.816 36.4462 150.198 34.9617L153.282 33.6949C154.261 35.982 155.926 37.1255 158.276 37.1255C159.21 37.1634 160.133 36.9164 160.92 36.4178C161.57 36.0182 161.962 35.3117 161.954 34.554C161.954 33.362 161.114 32.5543 159.43 32.1311L155.708 31.237C154.483 30.9158 153.342 30.3378 152.362 29.5421C151.318 28.7355 150.73 27.4805 150.781 26.1698C150.781 24.5547 151.502 23.244 152.943 22.2383C154.451 21.2123 156.247 20.6843 158.076 20.7298C159.602 20.7056 161.107 21.0867 162.435 21.8335C163.689 22.5391 164.658 23.6521 165.179 24.9845L162.174 26.2018C161.498 24.5867 160.094 23.7788 157.961 23.7788C157.054 23.7489 156.156 23.9687 155.367 24.4137C154.721 24.7457 154.315 25.4073 154.315 26.129C154.315 27.1735 155.13 27.8822 156.759 28.2549L160.405 29.114C162.134 29.5023 163.413 30.1818 164.242 31.1525C165.044 32.0594 165.485 33.2254 165.481 34.4317C165.498 36.0399 164.745 37.5607 163.452 38.532C162.098 39.6309 160.356 40.1804 158.225 40.1804L158.229 40.1804ZM176.843 40.1804C174.06 40.1804 171.798 39.2611 170.056 37.4228C168.315 35.5845 167.444 33.26 167.442 30.4508C167.391 27.9301 168.297 25.4824 169.98 23.5925C171.598 21.7162 173.986 20.6661 176.475 20.7357C179.217 20.7357 181.405 21.6181 183.038 23.3829C184.671 25.1477 185.492 27.5085 185.5 30.4653L185.462 31.1002H170.893C170.993 32.9387 171.614 34.3949 172.756 35.4685C173.827 36.5075 175.27 37.0817 176.769 37.0643C179.25 37.0643 180.93 36.0204 181.807 33.9337L184.892 35.2005C184.267 36.6447 183.236 37.8801 181.922 38.7592C180.541 39.7066 178.848 40.1803 176.842 40.1803L176.843 40.1804ZM181.807 28.2404C181.733 27.1959 181.25 26.2019 180.359 25.2583C179.468 24.3147 178.145 23.8527 176.39 23.8721C175.17 23.8512 173.986 24.2763 173.062 25.0661C172.094 25.9067 171.417 27.0272 171.126 28.2695L181.807 28.2404Z" fill="white"/>
<path d="M0.828674 41.6467L7.19212 0.98109C7.26991 0.482362 7.65829 0.0892111 8.15657 0.00467175C8.65485 -0.0798676 9.15139 0.163351 9.38964 0.608463L15.9706 12.8668L18.5937 7.87893C18.7968 7.49326 19.1973 7.25178 19.6337 7.25178C20.0701 7.25178 20.4705 7.49326 20.6737 7.87893L38.4332 41.6466L0.828674 41.6467Z" fill="#DBDBDB"/>
<path d="M22.8128 25.806L15.9676 12.8611L0.828735 41.6468L22.8128 25.806Z" fill="#757575"/>
<path d="M38.4335 41.6467L33.5596 11.526C33.486 11.0934 33.1769 10.7381 32.7583 10.6042C32.3397 10.4702 31.8816 10.5817 31.5707 10.8918L0.828735 41.6463L17.839 51.1731C18.9072 51.7687 20.2081 51.7687 21.2763 51.1731L38.4335 41.6463V41.6467Z" fill="#E2E2E2"/>
<path d="M33.5596 11.526C33.4859 11.0935 33.1768 10.7382 32.7582 10.6042C32.3396 10.4703 31.8815 10.5818 31.5706 10.8919L25.4691 17.0009L20.6711 7.8788C20.4679 7.49313 20.0675 7.25165 19.6311 7.25165C19.1947 7.25165 18.7942 7.49313 18.591 7.8788L15.9679 12.8667L9.38668 0.608527C9.14804 0.163297 8.6509 -0.0795276 8.15203 0.00564209C7.65317 0.0908118 7.26609 0.484948 7.18917 0.98407L0.828678 41.6468H0.808167L0.828678 41.6702L0.996125 41.7524L31.5618 11.1916C31.8725 10.8797 32.3317 10.7677 32.7514 10.9012C33.1711 11.0348 33.4808 11.3915 33.5537 11.8253L38.3865 41.676L38.4335 41.6467L33.5596 11.526ZM0.884494 41.591L7.19213 1.27165C7.26897 0.772524 7.65695 0.378388 8.15539 0.293218C8.65382 0.208048 9.151 0.450794 9.39004 0.896103L15.9706 13.1544L18.5937 8.16657C18.7968 7.7809 19.1973 7.53942 19.6337 7.53942C20.0701 7.53942 20.4706 7.7809 20.6737 8.16657L25.3744 17.0948L0.884494 41.591Z" fill="white" fill-opacity="0.2"/>
<path opacity="0.2" d="M21.2763 50.886C20.2081 51.4817 18.9072 51.4817 17.839 50.886L0.869816 41.3857L0.828674 41.6469L17.839 51.1708C18.9072 51.7664 20.2081 51.7664 21.2763 51.1708L38.4335 41.6469L38.3894 41.377L21.2763 50.886Z" fill="#5D5D5D"/>
<path d="M33.5109 11.5322C33.4375 11.0998 33.1294 10.7444 32.7123 10.6112C32.2952 10.4781 31.8387 10.5888 31.5289 10.8988L25.4483 17.0048L20.6675 7.88685C20.465 7.50134 20.066 7.25994 19.6311 7.25994C19.1963 7.25994 18.7973 7.50134 18.5948 7.88685L15.9804 12.8725L9.42261 0.619498C9.18476 0.174464 8.6894 -0.0683204 8.1927 0.0168887C7.696 0.102098 7.30935 0.495919 7.23279 0.994922L0.89447 41.6398L17.8453 51.1595C18.9098 51.7548 20.2061 51.7548 21.2706 51.1595L38.3678 41.6398L33.5109 11.5322V11.5322Z" fill="url(#paint0_linear_1_221)"/>
</g>
<defs>
<linearGradient id="paint0_linear_1_221" x1="-129.887" y1="878.334" x2="4543.78" y2="3346.87" gradientUnits="userSpaceOnUse">
<stop stop-color="white" stop-opacity="0.1"/>
<stop offset="0.14" stop-color="white" stop-opacity="0.08"/>
<stop offset="0.61" stop-color="white" stop-opacity="0.02"/>
<stop offset="1" stop-color="white" stop-opacity="0"/>
</linearGradient>
<clipPath id="clip0_1_221">
<rect width="185" height="52" fill="white" transform="translate(0.5)"/>
</clipPath>
</defs>
</svg>
