<svg width="118" height="72" viewBox="0 0 118 72" fill="none" xmlns="http://www.w3.org/2000/svg">
<g clip-path="url(#clip0_1_199)">
<path d="M58.323 72.0003C57.9335 72.0003 57.5468 71.8986 57.2053 71.7027L53.6478 69.6043C53.1164 69.3083 53.3757 69.2036 53.5509 69.1432C54.2594 68.8961 54.4032 68.8403 55.1594 68.4124C55.2389 68.3672 55.3429 68.3832 55.4243 68.431L58.1573 70.0468C58.256 70.0999 58.3961 70.0999 58.4876 70.0468L69.144 63.9185C69.2427 63.8627 69.3067 63.7485 69.3067 63.6315V51.3804C69.3067 51.2581 69.2427 51.1492 69.1419 51.088L58.4897 44.9651C58.391 44.9066 58.2603 44.9066 58.1616 44.9651L47.5116 51.088C47.4083 51.1465 47.3427 51.2608 47.3427 51.3777V63.6289C47.3427 63.7458 47.4067 63.8574 47.5081 63.9132L50.4263 65.5928C52.0107 66.3821 52.979 65.4519 52.979 64.5165V52.4248C52.979 52.252 53.1151 52.1191 53.2885 52.1191H54.6382C54.8062 52.1191 54.9449 52.252 54.9449 52.4248V64.5218C54.9449 66.6266 53.7926 67.8357 51.7894 67.8357C51.1732 67.8357 50.6877 67.8357 49.3326 67.1714L46.5372 65.5662C45.8463 65.1676 45.4195 64.4235 45.4195 63.6289V51.3777C45.4195 50.5804 45.8463 49.8363 46.5372 49.443L57.2043 43.3121C57.8791 42.9321 58.7754 42.9321 59.4449 43.3121L70.0987 49.4457C70.7869 49.8417 71.2163 50.5831 71.2163 51.3804V63.6315C71.2163 64.4261 70.7869 65.1676 70.0987 65.5662L59.4449 71.6971C59.1035 71.8938 58.7167 71.9948 58.3219 71.9948" fill="#9C9C9C"/>
<path d="M61.6146 63.5585C56.9519 63.5585 55.9743 61.4261 55.9743 59.6376C55.9743 59.4675 56.1119 59.3319 56.2829 59.3319H57.6593C57.8114 59.3319 57.9394 59.4422 57.9634 59.5918C58.1715 60.9892 58.7903 61.6939 61.6098 61.6939C63.8558 61.6939 64.8107 61.1885 64.8107 60.0019C64.8107 59.3189 64.5387 58.8113 61.0497 58.4712C58.1315 58.1842 56.3283 57.5437 56.3283 55.2184C56.3283 53.0764 58.1421 51.8008 61.1804 51.8008C64.592 51.8008 66.2832 52.9807 66.4966 55.516C66.5046 55.6037 66.4726 55.6887 66.4139 55.7525C66.3552 55.8136 66.2725 55.8508 66.1871 55.8508H64.8027C64.6587 55.8508 64.5333 55.7499 64.504 55.6117C64.1706 54.1421 63.365 53.6717 61.175 53.6717C58.7236 53.6717 58.4382 54.5221 58.4382 55.1599C58.4382 55.9332 58.7743 56.1591 62.082 56.595C65.3576 57.0281 66.9127 57.6394 66.9127 59.9328C66.9127 62.2448 64.9761 63.571 61.5991 63.571M74.5789 50.5783H74.9364C75.2298 50.5783 75.2858 50.3737 75.2858 50.2541C75.2858 49.9405 75.0697 49.9405 74.9497 49.9405H74.5816L74.5789 50.5783ZM74.1441 49.5738H74.9364C75.2084 49.5738 75.7419 49.5738 75.7419 50.1797C75.7419 50.6022 75.4699 50.6899 75.3071 50.7431C75.6246 50.7643 75.6459 50.9716 75.6886 51.264C75.7099 51.4473 75.7446 51.7636 75.8086 51.8699H75.3205C75.3071 51.7636 75.2324 51.1789 75.2324 51.147C75.2004 51.0168 75.1551 50.953 74.9924 50.953H74.5896V51.8725H74.1441V49.5738ZM73.1919 50.7165C73.1919 51.6679 73.9627 52.4386 74.9097 52.4386C75.8646 52.4386 76.6355 51.652 76.6355 50.7165C76.6355 49.7625 75.854 49.0051 74.907 49.0051C73.9734 49.0051 73.1892 49.7518 73.1892 50.7139M76.9663 50.7218C76.9663 51.8486 76.0407 52.7681 74.9124 52.7681C73.792 52.7681 72.8584 51.8592 72.8584 50.7218C72.8584 49.5631 73.8134 48.6755 74.9124 48.6755C76.0193 48.6755 76.9636 49.5658 76.9636 50.7218" fill="#9C9C9C"/>
<path fill-rule="evenodd" clip-rule="evenodd" d="M25.3238 24.0638C25.3238 23.5748 25.065 23.1257 24.6414 22.8825L13.3432 16.4062C13.1525 16.2945 12.9388 16.2361 12.7222 16.2281H12.6054C12.3888 16.2361 12.1751 16.2945 11.9812 16.4062L0.683521 22.8825C0.262599 23.127 0.00012207 23.5762 0.00012207 24.0651L0.0249293 41.5091C0.0249293 41.751 0.150299 41.9768 0.363695 42.0964C0.571755 42.224 0.833165 42.224 1.04123 42.0964L7.75785 38.2643C8.18197 38.0129 8.44071 37.5685 8.44071 37.0843V28.9351C8.44071 28.4487 8.69946 27.9996 9.12225 27.7578L11.9817 26.117C12.1941 25.9948 12.4272 25.9342 12.6646 25.9342C12.8983 25.9342 13.1367 25.9942 13.3432 26.1167L16.2014 27.757C16.6244 27.9988 16.8842 28.4479 16.8842 28.9343V37.083C16.8842 37.5667 17.1465 38.0131 17.5684 38.263L24.2808 42.0924C24.4915 42.2174 24.7537 42.2174 24.9637 42.0924C25.1707 41.9729 25.3019 41.747 25.3019 41.5051L25.3238 24.0638ZM78.6374 33.1462C78.6374 33.2676 78.5726 33.38 78.4667 33.4401L74.5861 35.6687C74.4808 35.729 74.3506 35.729 74.2455 35.6687L70.3644 33.4401C70.2577 33.3798 70.1936 33.2673 70.1936 33.1462V28.6826C70.1936 28.5609 70.2577 28.4487 70.3617 28.3876L74.2402 26.1553C74.3468 26.0942 74.4776 26.0942 74.5843 26.1553L78.4654 28.3876C78.5721 28.4487 78.6361 28.5609 78.6361 28.6826L78.6374 33.1462ZM79.6857 0.0860462C79.4739 -0.0314163 79.2163 -0.0282272 79.0071 0.0932215C78.7991 0.215468 78.6705 0.4387 78.6705 0.680534V17.9544C78.6705 18.1245 78.5798 18.2813 78.432 18.3664C78.2853 18.4514 78.1026 18.4514 77.9546 18.3664L75.1244 16.7423C74.7029 16.4994 74.1839 16.4994 73.7608 16.7423L62.4589 23.2408C62.0366 23.4826 61.776 23.9317 61.776 24.4154V37.416C61.776 37.9023 62.0366 38.3488 62.4589 38.5933L73.7608 45.0962C74.1828 45.3381 74.7024 45.3381 75.1257 45.0962L86.4277 38.5906C86.8492 38.3461 87.1106 37.8997 87.1106 37.4133V5.01283C87.1106 4.51959 86.8412 4.06595 86.409 3.82491L79.6857 0.0860462ZM117.322 28.5651C117.741 28.3222 118 27.8736 118 27.39V24.2392C118 23.7545 117.741 23.3072 117.32 23.0633L106.09 16.5683C105.666 16.3238 105.146 16.3238 104.722 16.5683L93.4228 23.0659C92.9987 23.3104 92.7399 23.7569 92.7399 24.2432V37.2385C92.7399 37.7275 93.004 38.1792 93.4281 38.4211L104.655 44.7965C105.069 45.033 105.576 45.0357 105.994 44.8045L112.786 41.0441C112.999 40.9245 113.135 40.6986 113.135 40.4541C113.135 40.2096 113.005 39.981 112.791 39.8615L101.422 33.3612C101.209 33.2416 101.078 33.0157 101.078 32.7738V28.6972C101.078 28.4538 101.206 28.2295 101.42 28.1083L104.957 26.0753C105.168 25.953 105.426 25.953 105.637 26.0753L109.177 28.1083C109.387 28.2279 109.518 28.4538 109.518 28.6956V31.9006C109.518 32.1424 109.649 32.3683 109.86 32.4906C110.07 32.6101 110.332 32.6101 110.542 32.4879L117.322 28.5651Z" fill="white"/>
<path fill-rule="evenodd" clip-rule="evenodd" d="M105.241 27.9572C105.321 27.9101 105.421 27.9101 105.502 27.9572L107.671 29.2035C107.752 29.2503 107.802 29.3364 107.802 29.4294V31.9248C107.802 32.0178 107.752 32.104 107.671 32.1507L105.502 33.3971C105.421 33.4441 105.321 33.4441 105.241 33.3971L103.074 32.1507C102.991 32.104 102.94 32.0178 102.94 31.9248V29.4294C102.94 29.3364 102.988 29.2503 103.071 29.2035L105.241 27.9572Z" fill="#9C9C9C"/>
<mask id="mask0_1_199" style="mask-type:luminance" maskUnits="userSpaceOnUse" x="30" y="16" width="27" height="30">
<path d="M42.8724 16.6331L31.6345 23.0954C31.2135 23.3372 30.9553 23.7837 30.9553 24.2663V37.1999C30.9553 37.6828 31.2135 38.129 31.6345 38.3708L42.8732 44.8382C43.2933 45.0792 43.8113 45.0792 44.2309 44.8382L55.4678 38.3708C55.8866 38.129 56.1453 37.6825 56.1453 37.1999V24.2663C56.1453 23.7837 55.8866 23.3372 55.4651 23.0954L44.2299 16.6331C44.0191 16.5127 43.7844 16.4524 43.5497 16.4524C43.3149 16.4524 43.0802 16.5127 42.8695 16.6331" fill="white"/>
</mask>
<g mask="url(#mask0_1_199)">
<path d="M67.5017 21.9981L35.8351 6.53394L19.5984 39.5335L51.2641 54.9984L67.5017 21.9981Z" fill="#E4E4E4"/>
</g>
<mask id="mask1_1_199" style="mask-type:luminance" maskUnits="userSpaceOnUse" x="31" y="16" width="25" height="30">
<path d="M31.2338 38.0212C31.3413 38.1602 31.4757 38.2806 31.6339 38.3709L41.274 43.9185L42.8798 44.838C43.1199 44.9762 43.3936 45.0346 43.6625 45.0147C43.7521 45.0075 43.8417 44.9908 43.9292 44.9661L55.7817 23.3445C55.691 23.2461 55.5849 23.1638 55.4659 23.0947L48.1075 18.8612L44.2178 16.6316C44.1074 16.5678 43.9876 16.5226 43.8657 16.4907L31.2338 38.0212Z" fill="white"/>
</mask>
<g mask="url(#mask1_1_199)">
<path d="M17.5423 26.5721L39.9021 56.7225L69.4734 34.9557L47.1122 4.80615L17.5423 26.5721Z" fill="#616161"/>
</g>
<mask id="mask2_1_199" style="mask-type:luminance" maskUnits="userSpaceOnUse" x="31" y="16" width="26" height="30">
<path d="M43.4154 16.4599C43.2269 16.4785 43.0425 16.5369 42.8726 16.6332L31.6667 23.0768L43.7502 45.0041C43.9183 44.9802 44.0836 44.9243 44.233 44.8382L55.471 38.3709C55.8177 38.1705 56.0551 37.8314 56.1272 37.4471L43.8089 16.4819C43.7182 16.4641 43.6275 16.4548 43.5341 16.4548C43.4968 16.4548 43.4595 16.4567 43.4221 16.4601" fill="white"/>
</mask>
<g mask="url(#mask2_1_199)">
<path d="M31.6665 16.4548V45.0046H56.1224V16.4548H31.6665Z" fill="#B2B2B2"/>
</g>
</g>
<defs>
<clipPath id="clip0_1_199">
<rect width="118" height="72" fill="white"/>
</clipPath>
</defs>
</svg>
